<?xml version="1.0" encoding="UTF-8"?>
<svg width="115px" height="115px" viewBox="0 0 115 115" version="1.1" xmlns="http://www.w3.org/2000/svg" xmlns:xlink="http://www.w3.org/1999/xlink">
    <!-- Generator: Sketch 51.2 (57519) - http://www.bohemiancoding.com/sketch -->
    <title>logo</title>
    <desc>Created with Sketch.</desc>
    <defs>
        <polygon id="path-1" points="0.087212788 0.18314859 58.8094001 0.18314859 58.8094001 65.1453641 0.087212788 65.1453641"></polygon>
        <polygon id="path-3" points="0.347390303 0.348633071 15.8529618 0.348633071 15.8529618 18.519685 0.347390303 18.519685"></polygon>
    </defs>
    <g id="mockup" stroke="none" stroke-width="1" fill="none" fill-rule="evenodd">
        <g id="logo" transform="translate(2.000000, 4.000000)">
            <path d="M34.4049054,37.9501361 L34.3947637,37.9245613 C34.3912361,37.9144196 34.3969684,37.9289708 34.4049054,37.9501361" id="Fill-1" fill="#FEFEFE"></path>
            <g id="Group-5" transform="translate(26.456693, 0.000000)">
                <mask id="mask-2" fill="white">
                    <use xlink:href="#path-1"></use>
                </mask>
                <g id="Clip-4"></g>
                <path d="M22.8631011,26.6988963 C22.6588302,25.7347347 22.6060743,24.795835 22.7288901,23.9045119 C22.9635483,22.1248128 23.9139987,20.5025795 25.425772,19.2390647 C26.9261499,17.9860757 28.9241216,17.1195934 30.8170035,16.9646539 C32.7499798,16.7869788 34.8015515,17.2606389 36.3589058,18.2706929 C37.137583,18.77172 37.7854255,19.3952673 38.2391263,20.092495 C38.3311326,20.2318564 38.4087893,20.3766911 38.4847578,20.5223679 C37.5267106,20.9265579 36.5640208,21.3286428 35.6034413,21.7260963 C33.8806444,22.436376 32.1540491,23.1344458 30.4219672,23.8190426 C27.9112082,24.8114132 25.3911641,25.7764168 22.8631011,26.6988963 M58.6776082,17.0008626 L58.6117688,16.4383649 L58.541709,15.9335484 C58.4830444,15.5360949 58.4214255,15.1925334 58.3471452,14.8203418 C58.1990066,14.0906947 58.0107735,13.3648368 57.7807578,12.6478206 C56.8725121,9.78270301 55.2476302,7.05652572 52.9875672,4.93452826 C50.7414318,2.80200502 47.8875483,1.31913298 44.9062066,0.646746091 C41.9219106,-0.0424820523 38.8299924,0.0653019456 35.9887704,0.781055057 C33.6303704,1.38060355 31.4277058,2.3637115 29.4618098,3.63017347 C27.6077562,2.46181178 25.5675798,1.51407045 23.3708239,0.918732273 C20.691246,0.184453787 17.7803861,-0.0365876149 14.9176397,0.468228844 C12.0603798,0.963361585 9.27022551,2.17803672 6.9671137,4.02931109 C4.65471685,5.87132277 2.86354835,8.32256666 1.7375263,10.9851682 C1.17156094,12.315627 0.761753071,13.6987146 0.494597165,15.092749 C0.245589291,16.4863624 0.107157795,17.8361886 0.0898538583,19.2436961 C0.0468050394,22.0355542 0.530049134,24.8871988 1.53747591,27.5203282 C2.52717669,30.1622993 4.04907906,32.5529146 5.75203969,34.6100733 C6.17493102,35.1258366 6.60921764,35.6213903 7.03042079,36.0921033 L7.63901291,36.7716477 C7.82175937,36.9758478 7.9935326,37.1737325 8.10284283,37.3109887 C8.14335937,37.4558235 8.18936252,37.6499189 8.23156724,37.840646 C8.34763024,38.3715664 8.45736252,38.9546947 8.56456252,39.5454015 L8.56540661,39.5454015 C8.67176252,40.1740012 8.78487118,40.8754392 8.90768693,41.6320323 C10.989646,54.4962209 13.2416901,65.1453641 19.7243357,65.1453641 C25.0391767,65.1453641 26.3563861,59.8264764 27.3178098,55.9437263 C27.8369279,53.8469907 28.5476554,50.9751366 29.4765814,50.9751366 C30.4055074,50.9751366 31.1170791,53.8469907 31.6361972,55.9428843 C32.5971987,59.8264764 33.9139861,65.1453641 39.2296712,65.1453641 C42.7233783,65.1453641 45.5067798,61.7598519 47.7398318,54.7959952 C49.1123294,50.5136864 50.072909,45.4305762 50.3611672,41.0649033 C48.7586539,41.734764 46.3816838,42.5578801 44.4326696,43.082485 C44.0798381,46.020862 43.4421247,49.1979638 42.6111137,52.0293989 C41.1322602,57.0657746 39.6436995,58.997887 39.0903956,59.4172341 C38.3100302,59.119565 37.638131,56.4064397 37.1848523,54.5762169 C36.2673216,50.871563 34.8817405,45.2731105 29.4765814,45.2731105 C24.0722665,45.2731105 22.6858413,50.871563 21.7691546,54.5762169 C21.3382444,56.3154969 20.6308932,59.173036 19.8370224,59.4256547 C19.5263956,59.1768252 18.3104775,57.920047 16.9257405,52.7817817 C15.8638696,48.8409293 15.1037625,44.1489571 14.5500365,40.7230259 C14.4255326,39.9521177 14.3090476,39.2367856 14.2005814,38.595555 L14.2005814,38.5938709 C14.1039326,37.9774812 14.0060176,37.354776 13.8772932,36.6870204 C13.8097657,36.3455641 13.7447704,36.0108442 13.6211106,35.5641301 C13.5869247,35.4479255 13.5510507,35.3237212 13.4949184,35.1675187 C13.4666413,35.0900489 13.4337216,35.0045796 13.3868743,34.8946904 C13.3383389,34.7843802 13.2885373,34.6694387 13.1674098,34.4618703 L13.0918633,34.3355609 L12.9352838,34.0976783 C12.8584712,33.9869471 12.7858791,33.8888468 12.7175074,33.8008512 C12.4520397,33.4551846 12.2296208,33.1983555 12.016909,32.9512102 L11.4083169,32.2522983 C11.0200334,31.8047421 10.6532743,31.3727641 10.3063515,30.9357336 C8.9190822,29.1985587 7.81796094,27.3771776 7.07853417,25.4303291 C6.34206173,23.4860068 5.99345071,21.426322 6.02637039,19.3249551 C6.03818772,18.2845869 6.1550948,17.1915898 6.3391074,16.1773255 C6.52016567,15.1651664 6.79956094,14.1854267 7.1815137,13.259158 C7.94077669,11.4049364 9.11702236,9.77259826 10.6279515,8.53645054 C12.1355043,7.29651353 13.9688775,6.45992445 15.9398381,6.09110108 C17.9107987,5.71638328 20.0066854,5.77574868 22.0882224,6.19762199 C24.1714476,6.62202148 26.248342,7.3824039 28.2691043,8.38614238 L29.7074413,9.10105343 L30.6849027,8.38614238 L30.6857468,8.38530032 C32.8305909,7.36935193 34.9986476,6.56181401 37.191183,6.16478155 C39.3740113,5.75764434 41.5665468,5.73575071 43.6126318,6.21488427 C45.6566066,6.6910706 47.52712,7.68680949 49.0135704,9.11031612 C50.5029751,10.5283493 51.6019861,12.3619404 52.2375893,14.4001526 C52.3967011,14.9087584 52.5292239,15.4299951 52.6338917,15.9613365 C52.6841153,16.2194286 52.7334948,16.5099402 52.7672586,16.7486649 L52.8276113,17.1995894 L52.8715043,17.5953587 C52.9833468,18.7009868 52.9900995,19.8049307 52.8900743,20.8899282 C52.6917121,23.0595022 52.0430255,25.1537116 50.9769342,27.01888 C49.9154854,28.8853115 48.4374759,30.5176496 46.6847137,31.7807433 C45.803057,32.4165005 44.8804617,32.9453158 43.864172,33.3975033 C42.8432397,33.8564274 41.7530917,34.2387237 40.6469058,34.5544972 C38.432846,35.1818337 36.1238255,35.5165536 33.9106098,35.4571882 C31.6990822,35.3995069 29.5896901,34.9237416 27.8732239,33.9536856 C27.0143578,33.4703417 26.2491861,32.867425 25.5899483,32.1487247 C25.5051169,32.0582029 25.4266161,31.9571554 25.346005,31.8615813 C27.7554728,30.9761526 30.1484806,30.0604097 32.527983,29.1194049 C34.2870759,28.4242823 36.0398381,27.7152657 37.7862696,26.9948812 C39.5381877,26.2723916 41.2681594,25.5469548 43.0264082,24.7861513 L44.9108491,23.9710348 L44.7319011,21.9572424 L44.7319011,21.951769 C44.6107735,20.2158572 44.0380554,18.4694196 43.0990003,17.0025468 C42.166698,15.5280953 40.9178602,14.3252091 39.5390318,13.4229391 C36.7682917,11.6200834 33.519794,10.8862259 30.3240523,11.1371605 C29.9235294,11.1695799 29.5234287,11.2171565 29.1271263,11.2832584 C28.9241216,11.3177829 28.7413751,11.3493603 28.5155798,11.3965158 L28.2252113,11.4605125 L27.9432838,11.5270354 C27.1675609,11.7207098 26.4201153,11.9733286 25.6929279,12.2735238 C24.2431956,12.8793878 22.8795609,13.6843995 21.6446507,14.6995059 C20.4131169,15.7150332 19.3128397,16.9511809 18.4653688,18.3873185 C17.6153657,19.8175616 17.0494003,21.4520049 16.8274035,23.1066577 C16.59992,24.7629946 16.7104964,26.4197525 17.0392712,27.9590428 C17.3667798,29.4924385 17.9213499,30.9626796 18.5502003,32.2485091 C19.2410917,33.6724367 20.1033342,34.9788967 21.1905279,36.1670468 C22.2697027,37.3476184 23.5531483,38.3589355 24.9395735,39.1386853 C27.7280397,40.7082898 30.8148932,41.3322581 33.7413688,41.4147802 C36.6881027,41.49225 39.5373436,41.0649033 42.2806507,40.2948371 C43.6548365,39.9074884 44.999057,39.4216183 46.3263956,38.8199647 C47.6617531,38.21789 48.9848712,37.4549814 50.1855956,36.5754471 C52.6018161,34.8130104 54.647057,32.531021 56.1166255,29.9143119 C57.5929468,27.301813 58.4750255,24.3625939 58.7265657,21.4090597 C58.8531798,19.9329242 58.8329216,18.4534204 58.6776082,17.0008626" id="Fill-3" fill="#FEFEFE" mask="url(#mask-2)"></path>
            </g>
            <path d="M4.17969602,98.3355698 C4.17969602,100.123968 4.60572328,101.526457 5.4603494,102.543465 C6.31368972,103.561325 7.49362236,104.069189 8.99886153,104.069189 C9.65033179,104.069189 10.2070817,104.041899 10.6673969,103.985611 C11.127712,103.930177 11.5044504,103.868773 11.7963263,103.800972 L11.7963263,93.7421926 C11.4367318,93.4961493 10.9592727,93.2671627 10.3643775,93.05438 C9.76819648,92.8420237 9.13387017,92.7358456 8.45968418,92.7358456 C6.97630354,92.7358456 5.89237704,93.2390191 5.20747607,94.2449397 C4.52214651,95.2508603 4.17969602,96.6145458 4.17969602,98.3355698 Z M15.8740157,106.617891 C15.0652497,106.864361 14.0481846,107.087378 12.8245349,107.288221 C11.5991708,107.489916 10.3133742,107.590551 8.96543082,107.590551 C7.57162735,107.590551 6.32526188,107.377342 5.22462003,106.953482 C4.12269237,106.52877 3.18534668,105.919418 2.41001135,105.125854 C1.63510463,104.332289 1.03892362,103.371569 0.623611332,102.241987 C0.207441845,101.113685 0,99.8442375 0,98.4357781 C0,97.0503453 0.174011135,95.7928379 0.522462003,94.6641088 C0.870484272,93.5353798 1.3822313,92.5682632 2.0559887,91.7631856 C2.7297461,90.9585344 3.55008431,90.3380958 4.51614612,89.9027228 C5.48220794,89.466497 6.59485056,89.2485973 7.8527882,89.2485973 C8.70698571,89.2485973 9.4591767,89.349232 10.1115042,89.550075 C10.7625458,89.7517708 11.3244389,89.9752139 11.7963263,90.2208308 L11.7963263,81.8046141 L15.8740157,81.1338583 L15.8740157,106.617891 Z" id="Fill-6" fill="#FEFEFE"></path>
            <g id="Group-10" transform="translate(20.283465, 89.070866)">
                <mask id="mask-4" fill="white">
                    <use xlink:href="#path-3"></use>
                </mask>
                <g id="Clip-9"></g>
                <path d="M11.8777741,7.72956936 C11.8777741,7.17818783 11.8009104,6.65374402 11.6476008,6.15750064 C11.4942913,5.66083636 11.2699663,5.23067459 10.9746261,4.86659442 C10.6784504,4.50251424 10.3179431,4.21588003 9.89018019,4.00584996 C9.46367045,3.7962408 8.95444874,3.69143622 8.36293278,3.69143622 C7.74927675,3.69143622 7.21331985,3.80760515 6.75297339,4.03868031 C6.29388015,4.27059728 5.90454903,4.57448848 5.58706871,4.9495121 C5.27000613,5.32453572 5.02354115,5.7555393 4.8480915,6.24041832 C4.67264186,6.72571825 4.55275126,7.22196163 4.48674878,7.72956936 L11.8777741,7.72956936 Z M0.347390303,9.51671897 C0.347390303,7.99431668 0.572132947,6.65963665 1.02161823,5.51183708 C1.46943257,4.36530021 2.06679685,3.40985283 2.81162238,2.64886213 C3.55561243,1.88745054 4.40988512,1.31460301 5.37360497,0.928215032 C6.33690709,0.54224796 7.32276701,0.348633071 8.33034927,0.348633071 C10.6955776,0.348633071 12.5403053,1.08857867 13.8653679,2.56636535 C15.189595,4.04457294 15.8529618,6.25136178 15.8529618,9.18589005 C15.8529618,9.40644266 15.8471135,9.6547748 15.8358346,9.93046557 C15.8249734,10.2069981 15.8086816,10.4553303 15.7865416,10.675462 L4.45416527,10.675462 C4.5631947,12.0657011 5.05027634,13.1406846 5.91624567,13.9020962 C6.78096179,14.6635078 8.03417356,15.0440031 9.67629872,15.0440031 C10.6400186,15.0440031 11.5210264,14.9560346 12.321411,14.7792558 C13.1205424,14.6028979 13.7500724,14.4151757 14.2104189,14.2169309 L14.7359324,17.4932315 C14.5162026,17.6039287 14.2154317,17.7196767 13.8327844,17.8404756 C13.4493016,17.9625372 13.0110952,18.0723926 12.5181653,18.1721463 C12.025653,18.2714792 11.4942913,18.353555 10.9249154,18.4200576 C10.3551218,18.4865601 9.77530245,18.5198113 9.18462196,18.5198113 C7.67366631,18.5198113 6.35904716,18.2929452 5.24201774,17.8404756 C4.12498831,17.3888478 3.20554861,16.7600203 2.48286316,15.954414 C1.76059544,15.1492286 1.22380307,14.2000948 0.872903771,13.1078543 C0.52283995,12.0156137 0.347390303,10.8189895 0.347390303,9.51671897 Z" id="Fill-8" fill="#FEFEFE" mask="url(#mask-4)"></path>
            </g>
            <path d="M41.4488189,89.9953907 C42.2026787,89.7757059 43.1819575,89.5665222 44.3870657,89.3678397 C45.5925845,89.1695773 46.9270314,89.0708661 48.3912276,89.0708661 C49.7683768,89.0708661 50.9196965,89.263668 51.8460079,89.6484315 C52.770677,90.0340351 53.5085235,90.5733761 54.0570838,91.2668746 C54.6064653,91.9607931 54.9936602,92.7979478 55.2199003,93.7774986 C55.4461404,94.7574694 55.5590551,95.8311109 55.5590551,96.9980029 L55.5590551,106.708661 L51.6522052,106.708661 L51.6522052,97.6255539 C51.6522052,96.7006093 51.5926683,95.9138603 51.4740052,95.2640467 C51.3561633,94.6142332 51.1619499,94.0858135 50.8934182,93.6783674 C50.6240652,93.2713413 50.2582214,92.9739477 49.7954763,92.7866065 C49.33191,92.5996853 48.7673363,92.5060147 48.1001128,92.5060147 C47.6045198,92.5060147 47.0879862,92.5387784 46.5509226,92.605146 C46.0118061,92.6706734 45.6143462,92.7261196 45.3560794,92.7698046 L45.3560794,106.708661 L41.4488189,106.708661 L41.4488189,89.9953907 Z" id="Fill-11" fill="#FEFEFE"></path>
            <path d="M61.7322835,85.3232675 L65.6358073,84.6614173 L65.6358073,89.8893187 L71.6371572,89.8893187 L71.6371572,93.2309681 L65.6358073,93.2309681 L65.6358073,100.278642 C65.6358073,101.667981 65.8503903,102.660545 66.2816079,103.255916 C66.7111842,103.851708 67.4427359,104.149183 68.4750321,104.149183 C69.1848383,104.149183 69.8138169,104.072605 70.3627884,103.917766 C70.9109393,103.763769 71.3470804,103.619871 71.6691601,103.487753 L72.3149606,106.664045 C71.8628182,106.862642 71.2707659,107.066709 70.5400348,107.276246 C69.8084831,107.485783 68.9476892,107.590551 67.958884,107.590551 C66.754265,107.590551 65.7486378,107.424773 64.9424128,107.094058 C64.1353673,106.763344 63.4953108,106.28326 63.0226537,105.65465 C62.5495863,105.026039 62.2164287,104.265311 62.0223603,103.372045 C61.8291125,102.478358 61.7322835,101.458864 61.7322835,100.311461 L61.7322835,85.3232675 Z" id="Fill-13" fill="#FEFEFE"></path>
            <path d="M82.3322124,104.340328 C83.5777073,104.340328 84.5228581,104.272732 85.1685132,104.137108 L85.1685132,99.6004011 C84.9453762,99.5328047 84.6229728,99.4652084 84.2004548,99.397612 C83.7779368,99.3291545 83.3108761,99.2955716 82.7996972,99.2955716 C82.3546957,99.2955716 81.9037553,99.3291545 81.4489969,99.397612 C80.9925417,99.4652084 80.5814774,99.5892068 80.2145315,99.7700379 C79.8475856,99.950869 79.5523321,100.204894 79.3304677,100.531681 C79.1073306,100.858899 78.9966105,101.270936 78.9966105,101.76693 C78.9966105,102.73782 79.2973789,103.409478 79.8972188,103.781904 C80.4979071,104.1539 81.3098544,104.340328 82.3322124,104.340328 M81.9992037,89.0708661 C83.3329353,89.0708661 84.4558322,89.2405029 85.3678942,89.5789153 C86.2795321,89.9177583 87.0074848,90.3917941 87.5530252,91.0010226 C88.0981414,91.6106816 88.4875706,92.3495057 88.7204646,93.2183559 C88.9537828,94.0880673 89.0708661,95.0413054 89.0708661,96.0793618 L89.0708661,106.811686 C88.4476944,106.947309 87.5080584,107.111349 86.2519581,107.302944 C84.9950093,107.494538 83.5777073,107.590551 81.9992037,107.590551 C80.9535139,107.590551 79.9973335,107.488511 79.129814,107.286152 C78.263143,107.082502 77.5233122,106.755714 76.9120185,106.304067 C76.2994522,105.852851 75.8222104,105.266011 75.4777479,104.543548 C75.1320127,103.821515 74.9606299,102.930276 74.9606299,101.86897 C74.9606299,100.852872 75.1544961,99.9956462 75.5439254,99.2955716 C75.9333547,98.5963581 76.461078,98.0258791 77.1287923,97.5858569 C77.7960824,97.1458346 78.5681535,96.8302413 79.4471268,96.6377854 C80.3256758,96.4466211 81.2428285,96.3501779 82.1990089,96.3501779 C82.6435861,96.3501779 83.1110709,96.3785942 83.5997665,96.4349963 C84.0888863,96.4913983 84.611519,96.5869805 85.1685132,96.7226038 L85.1685132,96.0453484 C85.1685132,95.5713126 85.1120926,95.1205266 85.0009483,94.6912681 C84.889804,94.2628706 84.6950894,93.884417 84.4176528,93.5571989 C84.1393679,93.2299808 83.772422,92.9759562 83.3163909,92.7955557 C82.8607841,92.6151551 82.2876698,92.5247396 81.5987448,92.5247396 C80.6641993,92.5247396 79.8085579,92.5919054 79.0305477,92.7275287 C78.2516892,92.863152 77.6179121,93.021164 77.1287923,93.2015645 L76.6286429,89.8837449 C77.1398219,89.7033443 77.8847433,89.5229438 78.8629828,89.3416822 C79.8416466,89.1617122 80.886488,89.0708661 81.9992037,89.0708661" id="Fill-15" fill="#FEFEFE"></path>
            <path d="M100.820952,107.590551 C99.5576821,107.567865 98.5095696,107.433458 97.6797395,107.186903 C96.8481239,106.939921 96.1870274,106.586354 95.6964501,106.126204 C95.2045336,105.666911 94.8594778,105.094184 94.66039,104.40931 C94.4617486,103.72572 94.3622047,102.945391 94.3622047,102.070465 L94.3622047,81.8076033 L98.6091135,81.1338583 L98.6091135,101.296129 C98.6091135,101.790094 98.650181,102.204871 98.7318695,102.541744 C98.8140043,102.87776 98.9604187,103.164123 99.1715589,103.399549 C99.3813599,103.635402 99.6683856,103.815182 100.03085,103.938459 C100.393762,104.061737 100.85577,104.157191 101.417323,104.224822 L100.820952,107.590551 Z" id="Fill-17" fill="#FEFEFE"></path>
            <path d="M111.402812,107.590551 C110.139702,107.567865 109.091722,107.433458 108.261997,107.186903 C107.431379,106.939921 106.770366,106.586354 106.278958,106.126204 C105.787997,105.666911 105.442092,105.094184 105.243922,104.40931 C105.044413,103.72572 104.944882,102.945391 104.944882,102.070465 L104.944882,81.8076033 L109.192146,81.1338583 L109.192146,101.296129 C109.192146,101.790094 109.233208,102.204871 109.314886,102.541744 C109.397011,102.87776 109.543407,103.164123 109.753628,103.399549 C109.964295,103.635402 110.250391,103.815182 110.613703,103.938459 C110.975676,104.061737 111.438518,104.157191 112,104.224822 L111.402812,107.590551 Z" id="Fill-19" fill="#FEFEFE"></path>
        </g>
    </g>
</svg>