<svg xmlns="http://www.w3.org/2000/svg" width="104" height="24" viewBox="0 0 104 24">
    <g fill="none" fill-rule="evenodd">
        <path fill="#231916" d="M38.024 5.03v17.219c-.544.166-1.227.317-2.05.453-.824.136-1.688.204-2.595.204-.937 0-1.775-.144-2.515-.43a5.236 5.236 0 0 1-1.891-1.235 5.438 5.438 0 0 1-1.201-1.949c-.28-.763-.42-1.62-.42-2.572 0-.936.117-1.786.352-2.548.234-.763.577-1.416 1.03-1.96a4.595 4.595 0 0 1 1.655-1.258c.649-.294 1.396-.441 2.243-.441.573 0 1.08.068 1.518.204a6.82 6.82 0 0 1 1.133.453V5.483l2.74-.453zm8.904 5.437c1.631 0 2.904.506 3.817 1.518.914 1.012 1.371 2.523 1.371 4.532 0 .15-.004.32-.011.51-.008.189-.02.358-.034.51h-7.817c.076.95.412 1.687 1.009 2.208.596.521 1.461.782 2.594.782.664 0 1.272-.06 1.824-.181.55-.121.985-.25 1.303-.386l.362 2.243c-.151.076-.359.156-.623.238a8.783 8.783 0 0 1-.906.227c-.34.068-.707.124-1.1.17-.392.045-.792.068-1.2.068-1.042 0-1.949-.155-2.719-.465-.77-.31-1.405-.74-1.903-1.291a5.29 5.29 0 0 1-1.11-1.949 7.95 7.95 0 0 1-.363-2.458c0-1.042.155-1.956.465-2.741.31-.785.721-1.439 1.235-1.96a5.107 5.107 0 0 1 1.767-1.178 5.476 5.476 0 0 1 2.039-.397zm25.08-3.285v3.58h4.215v2.288h-4.215v4.826c0 .951.151 1.631.454 2.04.302.407.815.61 1.54.61.499 0 .94-.052 1.326-.158.385-.105.69-.204.917-.294l.453 2.175c-.317.136-.732.276-1.246.419-.513.143-1.118.215-1.812.215-.846 0-1.552-.113-2.119-.34-.566-.226-1.016-.555-1.348-.985-.332-.43-.566-.952-.702-1.564a9.715 9.715 0 0 1-.204-2.095V7.635l2.741-.453zm-11.554 3.33c.966 0 1.775.133 2.424.397.65.265 1.167.635 1.552 1.11.385.476.657 1.05.816 1.722.158.672.238 1.409.238 2.21v6.66h-2.742v-6.23c0-.635-.042-1.175-.124-1.62-.083-.446-.22-.808-.408-1.088a1.63 1.63 0 0 0-.77-.611c-.326-.129-.722-.193-1.19-.193-.348 0-.71.023-1.088.068a20.24 20.24 0 0 0-.838.113v9.561h-2.741V11.147c.528-.151 1.215-.295 2.062-.43a17.777 17.777 0 0 1 2.809-.204zM33.039 12.87c-.996 0-1.725.34-2.186 1.02-.46.68-.691 1.6-.691 2.764 0 1.208.287 2.156.861 2.843.574.687 1.367 1.03 2.379 1.03.438 0 .812-.018 1.121-.056.31-.037.563-.079.76-.124v-6.797a4.276 4.276 0 0 0-.963-.465 3.772 3.772 0 0 0-1.28-.215zm13.912-.113c-.423 0-.793.079-1.11.237a2.53 2.53 0 0 0-.805.624c-.22.257-.39.551-.51.883a4.776 4.776 0 0 0-.249 1.02h5.098c0-.378-.053-.737-.159-1.077a2.598 2.598 0 0 0-.464-.883 2.2 2.2 0 0 0-.748-.59c-.295-.143-.646-.214-1.053-.214z"/>
        <path fill="#00A1E1" d="M83.382 10.467c.907 0 1.669.114 2.288.34.62.227 1.114.544 1.485.952.37.407.634.902.792 1.484.159.581.238 1.22.238 1.914v7.182c-.423.091-1.06.2-1.914.329-.854.128-1.816.192-2.889.192a8.67 8.67 0 0 1-1.948-.203c-.59-.137-1.092-.355-1.507-.657a3.095 3.095 0 0 1-.974-1.179c-.235-.483-.351-1.08-.351-1.79 0-.68.132-1.253.396-1.722.264-.467.623-.85 1.076-1.144a4.658 4.658 0 0 1 1.575-.634 8.88 8.88 0 0 1 2.82-.136 8.9 8.9 0 0 1 1.066.193v-.454c0-.317-.038-.619-.114-.906a1.885 1.885 0 0 0-.396-.759 1.86 1.86 0 0 0-.748-.51c-.31-.12-.699-.18-1.167-.18-.634 0-1.216.045-1.744.135-.53.09-.96.197-1.292.317l-.34-2.22c.348-.12.854-.241 1.519-.362.664-.121 1.374-.182 2.13-.182zM94.575 5.03V18.6c0 .333.026.613.079.84.053.226.147.418.283.577.136.159.32.28.555.362.234.084.533.148.895.193l-.385 2.266c-.816-.015-1.492-.106-2.028-.272-.536-.166-.963-.404-1.28-.714a2.528 2.528 0 0 1-.668-1.155 5.876 5.876 0 0 1-.193-1.575V5.482l2.742-.452zm7.068 0V18.6c0 .333.027.613.08.84.052.226.147.418.283.577.136.159.32.28.555.362.234.084.532.148.895.193l-.385 2.266c-.816-.015-1.492-.106-2.028-.272-.536-.166-.963-.404-1.28-.714a2.525 2.525 0 0 1-.669-1.155 5.876 5.876 0 0 1-.192-1.575V5.482l2.741-.452zM83.926 17.31c-.302 0-.608.022-.918.067a2.87 2.87 0 0 0-.838.25 1.52 1.52 0 0 0-.6.51c-.152.219-.227.494-.227.827 0 .65.204 1.098.612 1.348.408.249.959.373 1.654.373.846 0 1.487-.045 1.926-.136v-3.036a6.148 6.148 0 0 0-1.609-.204z"/>
        <path fill="#231916" d="M12.882.215a6.84 6.84 0 0 1 3.2-.048 6.232 6.232 0 0 1 2.9 1.542 6.527 6.527 0 0 1 1.72 2.775 7.383 7.383 0 0 1 .273 1.181l.025.182.024.202c.056.523.063 1.055.017 1.586a7.565 7.565 0 0 1-.936 3.06 7.56 7.56 0 0 1-2.128 2.395c-.431.316-.906.59-1.385.807-.477.217-.959.392-1.452.53-.984.278-2.007.432-3.064.404-1.05-.03-2.158-.254-3.158-.819a5.443 5.443 0 0 1-1.346-1.069c-.39-.427-.7-.897-.947-1.41a6.815 6.815 0 0 1-.542-1.542 5.091 5.091 0 0 1-.076-1.745c.08-.596.283-1.183.588-1.698a5.056 5.056 0 0 1 1.14-1.326 5.792 5.792 0 0 1 2.26-1.142l.102-.024.104-.022a5.27 5.27 0 0 1 .649-.094 5.273 5.273 0 0 1 3.306.822c.495.325.943.757 1.278 1.288.337.527.542 1.156.586 1.78v.002l.064.724-.676.293a138.475 138.475 0 0 1-3.767 1.559c-.854.339-1.713.668-2.578.986.03.035.057.071.088.104.237.258.511.475.82.65.615.348 1.372.52 2.166.54a8.16 8.16 0 0 0 2.417-.325 8.563 8.563 0 0 0 1.154-.416 5.581 5.581 0 0 0 1.012-.581 5.432 5.432 0 0 0 1.54-1.713 5.45 5.45 0 0 0 .687-2.205c.036-.39.034-.787-.007-1.185l-.015-.142-.022-.162a5.28 5.28 0 0 0-.19-.845 4.445 4.445 0 0 0-1.157-1.903 4.16 4.16 0 0 0-1.938-1.042c-.734-.172-1.52-.164-2.304-.017-.787.142-1.565.433-2.335.798l-.35.258-.516-.257a9.098 9.098 0 0 0-2.218-.788 5.736 5.736 0 0 0-2.207-.038 4.217 4.217 0 0 0-1.906.88 4.285 4.285 0 0 0-1.237 1.698 5.166 5.166 0 0 0-.302 1.05 6.892 6.892 0 0 0-.112 1.132 5.922 5.922 0 0 0 .378 2.196c.265.7.66 1.356 1.158 1.98.125.158.256.313.395.474l.219.251c.076.09.156.182.251.306l.078.107.056.085.027.046c.044.074.062.116.08.155a1.848 1.848 0 0 1 .083.241c.045.161.068.281.092.404.046.24.081.465.116.686l.04.24.085.526c.2 1.232.472 2.92.853 4.338.497 1.848.933 2.3 1.045 2.39.285-.092.539-1.12.693-1.745.33-1.333.827-3.346 2.766-3.346 1.805 0 2.36 1.745 2.695 3.061l.104.42c.162.65.39 1.506.65 1.606.2-.15.733-.846 1.263-2.657.3-1.019.528-2.161.654-3.218a18.77 18.77 0 0 0 2.128-.726 21.804 21.804 0 0 1-.94 4.939c-.802 2.505-1.801 3.723-3.055 3.723-1.907 0-2.38-1.914-2.725-3.31-.186-.754-.44-1.787-.774-1.787s-.589 1.033-.775 1.787c-.345 1.396-.818 3.31-2.725 3.31-2.326 0-3.134-3.83-3.881-8.458-.044-.272-.085-.525-.123-.75a18.339 18.339 0 0 0-.12-.614 3.915 3.915 0 0 0-.046-.19c-.04-.05-.1-.12-.166-.194l-.219-.245c-.15-.169-.307-.347-.458-.533-.612-.74-1.158-1.6-1.513-2.55A8.064 8.064 0 0 1 0 6.856c.007-.506.057-.992.146-1.493a7.28 7.28 0 0 1 .446-1.478A6.396 6.396 0 0 1 2.47 1.384 6.284 6.284 0 0 1 5.32.103a6.945 6.945 0 0 1 3.034.161c.788.215 1.52.556 2.185.976A7.938 7.938 0 0 1 12.882.215zM11.26 6.024l-.232.012c-.68.056-1.397.368-1.935.818-.542.455-.884 1.038-.968 1.678-.044.321-.025.659.049 1.005.907-.331 1.81-.678 2.712-1.035a145.961 145.961 0 0 0 2.893-1.186 1.785 1.785 0 0 0-.088-.155 2.258 2.258 0 0 0-.675-.655c-.559-.363-1.295-.534-1.988-.47z"/>
    </g>
</svg>
