<?xml version="1.0" encoding="UTF-8"?>
<svg width="48px" height="48px" viewBox="0 0 48 48" version="1.1" xmlns="http://www.w3.org/2000/svg" xmlns:xlink="http://www.w3.org/1999/xlink">
    <title>Avataaar/NP</title>
    <g id="Avataaar/NP" stroke="none" stroke-width="1" fill="none" fill-rule="evenodd">
        <circle id="Oval" fill="#828991" fill-rule="nonzero" cx="24" cy="24" r="24"></circle>
        <path d="M30.1042685,34.3417969 C31.5626018,34.3417969 32.2917685,33.4622396 32.2917685,31.703125 L32.2917685,31.703125 L32.2917685,15.9394531 C32.2917685,15.1647135 32.1231487,14.5836589 31.7859091,14.1962891 C31.4486695,13.8089193 30.988383,13.6152344 30.4050497,13.6152344 C29.8399455,13.6152344 29.3910523,13.8089193 29.05837,14.1962891 C28.7256877,14.5836589 28.5593466,15.1647135 28.5593466,15.9394531 L28.5593466,15.9394531 L28.5593466,27.8613281 L20.752706,16.0488281 C20.533956,15.702474 20.3220419,15.3697917 20.1169638,15.0507812 C19.9118857,14.7317708 19.7113648,14.4720052 19.5154013,14.2714844 C19.3194377,14.0709635 19.0915732,13.9114583 18.8318075,13.7929688 C18.5720419,13.6744792 18.2598674,13.6152344 17.8952841,13.6152344 C17.4304403,13.6152344 16.9974976,13.7451172 16.596456,14.0048828 C16.1954143,14.2646484 15.9083049,14.5996094 15.7351278,15.0097656 C15.5892945,15.3834635 15.5163778,15.8984375 15.5163778,16.5546875 L15.5163778,16.5546875 L15.5163778,32.0175781 C15.5163778,32.7740885 15.6895549,33.3505859 16.0359091,33.7470703 C16.3822633,34.1435547 16.8425497,34.3417969 17.4167685,34.3417969 C17.972758,34.3417969 18.4284872,34.1458333 18.783956,33.7539062 C19.1394247,33.3619792 19.3171591,32.7832031 19.3171591,32.0175781 L19.3171591,32.0175781 L19.3171591,20.2734375 L26.9323935,31.9492188 C27.1511435,32.2682292 27.3698935,32.5804036 27.5886435,32.8857422 C27.8073935,33.1910807 28.0443726,33.4576823 28.299581,33.6855469 C28.5547893,33.9134115 28.8282268,34.0797526 29.1198935,34.1845703 C29.4115601,34.289388 29.7396851,34.3417969 30.1042685,34.3417969 Z" id="N" fill="#FFFFFF" fill-rule="nonzero"></path>
    </g>
</svg>