<?xml version="1.0" encoding="UTF-8"?>
<svg width="200px" height="200px" viewBox="0 0 200 200" version="1.1" xmlns="http://www.w3.org/2000/svg" xmlns:xlink="http://www.w3.org/1999/xlink">
    <!-- Generator: Sketch 58 (84663) - https://sketch.com -->
    <title>logo</title>
    <desc>Created with Sketch.</desc>
    <g id="Logo" stroke="none" stroke-width="1" fill="none" fill-rule="evenodd">
        <path d="M185.760202,0 L14.1375315,0 C6.32947103,0 0,6.33047859 0,14.138539 L0,185.761209 C0,193.56927 6.32947103,199.898741 14.1375315,199.898741 L185.760202,199.898741 C193.568262,199.898741 199.897733,193.56927 199.897733,185.761209 L199.897733,14.138539 C199.897733,6.33047859 193.568262,0 185.760202,0" id="Path" fill="#00A1E1"></path>
        <path d="M137.642317,26.0020151 C144.511839,27.5541562 151.085642,30.9798489 156.263476,35.9052897 C161.470025,40.8065491 165.213602,47.102267 167.306801,53.7198992 C167.835264,55.3753149 168.270025,57.0518892 168.610076,58.7375315 C168.782368,59.5974811 168.923929,60.3904282 169.05995,61.3078086 L169.221159,62.4740554 L169.3733,63.7732997 C169.729975,67.1274559 169.77733,70.5445844 169.483627,73.9541562 C168.90529,80.7763224 166.871537,87.5642317 163.471033,93.5979849 C160.085139,99.6413098 155.373804,104.910831 149.805542,108.981864 C147.038287,111.013098 143.990428,112.776322 140.914358,114.166751 C137.856423,115.555668 134.75869,116.679093 131.593955,117.5733 C125.27204,119.351637 118.706297,120.337531 111.919899,120.159194 C105.176322,119.96927 98.0639798,118.52796 91.6382872,114.901259 C88.4443325,113.103275 85.4871537,110.765743 83.0005038,108.038791 C80.4967254,105.295718 78.5103275,102.278589 76.9163728,98.9879093 C75.4685139,96.0191436 74.1914358,92.6241814 73.4372796,89.0831234 C72.6780856,85.5269521 72.4246851,81.7012594 72.9486146,77.8755668 C73.4594458,74.0539043 74.7632242,70.279597 76.7224181,66.9753149 C78.6735516,63.6584383 81.2100756,60.8035264 84.0473552,58.4579345 C86.893199,56.1133501 90.0337531,54.2549118 93.3743073,52.8559194 C95.0488665,52.1617128 96.772796,51.5778338 98.559194,51.1314861 L99.2095718,50.97733 L99.8770781,50.8307305 C100.398992,50.7198992 100.819647,50.6468514 101.28665,50.5672544 C102.201008,50.4151134 103.121914,50.3062972 104.043325,50.2302267 C111.407557,49.6508816 118.892695,51.3460957 125.275567,55.5093199 C128.452393,57.5949622 131.330479,60.3717884 133.480101,63.7763224 C135.642317,67.163728 136.962217,71.1984887 137.240806,75.2065491 L137.240806,75.2206549 L137.652897,79.8710327 L133.311839,81.7536524 C129.260957,83.5108312 125.274055,85.1874055 121.238791,86.8554156 C117.213098,88.5193955 113.175819,90.1566751 109.123929,91.7627204 C103.639295,93.9355164 98.1259446,96.0498741 92.5738035,98.0957179 C92.7612091,98.3168766 92.9410579,98.5486146 93.1360202,98.7596977 C94.6559194,100.41864 96.418136,101.811083 98.3979849,102.92796 C102.352141,105.168262 107.213098,106.266499 112.308312,106.399496 C117.406045,106.537028 122.726448,105.764232 127.829219,104.315869 C130.37733,103.585894 132.887154,102.702267 135.24131,101.643829 C137.582872,100.598992 139.707305,99.37733 141.74005,97.9093199 C145.777834,94.9924433 149.182872,91.2221662 151.629723,86.911335 C154.087154,82.6030227 155.580856,77.7677582 156.038791,72.7551637 C156.267003,70.2493703 156.251385,67.7002519 155.994458,65.1460957 L155.894207,64.2322418 L155.756171,63.1904282 C155.676574,62.6397985 155.564232,61.9687657 155.446851,61.3717884 C155.207053,60.1455919 154.900756,58.9410579 154.532997,57.7662469 C153.070025,53.0594458 150.539043,48.8236776 147.104282,45.5486146 C143.680605,42.2624685 139.370781,39.9612091 134.661461,38.861461 C129.948111,37.7561713 124.896222,37.8055416 119.865995,38.7465995 C114.815617,39.6634761 109.819647,41.5284635 104.878589,43.8745592 L104.875567,43.8765743 L102.623678,45.5274559 L99.3103275,43.8765743 C94.6549118,41.559194 89.8685139,39.8030227 85.0695214,38.8216625 C80.2725441,37.8473552 75.4443325,37.7118388 70.9027708,38.5758186 C66.3617128,39.4267003 62.1365239,41.3612091 58.6629723,44.2236776 C55.1833753,47.0790932 52.4730479,50.8493703 50.7229219,55.1309824 C49.8448363,57.2715365 49.1994962,59.534005 48.781864,61.8715365 C48.3596977,64.213602 48.0891688,66.7380353 48.0634761,69.1415617 C47.9869018,73.9944584 48.7899244,78.7506297 50.4871537,83.2423174 C52.1894207,87.738539 54.7259446,91.9460957 57.9239295,95.9586902 C58.7239295,96.9662469 59.5677582,97.9647355 60.4639798,98.9989924 L61.8634761,100.612091 C62.3546599,101.182872 62.8664987,101.775315 63.4790932,102.574811 C63.6357683,102.778338 63.8020151,103.004534 63.9798489,103.260957 L64.3395466,103.808564 L64.5148615,104.101259 C64.7949622,104.579849 64.9088161,104.84534 65.0221662,105.099748 C65.129471,105.354156 65.204534,105.552141 65.2700252,105.730982 C65.3984887,106.092695 65.4826196,106.378841 65.559194,106.646851 C65.8448363,107.678589 65.995466,108.452393 66.1506297,109.239295 C66.4463476,110.782368 66.6735516,112.221662 66.8957179,113.644836 L66.8957179,113.648363 C67.1465995,115.129471 67.4125945,116.780856 67.7002519,118.562217 C68.9783375,126.474559 70.7279597,137.310327 73.1748111,146.413098 C76.3642317,158.279597 79.1672544,161.181864 79.8811083,161.757683 C81.7118388,161.1733 83.3410579,154.572796 84.334005,150.557179 C86.4473552,142 89.640806,129.070529 102.092695,129.070529 C114.544081,129.070529 117.738035,142 119.851889,150.556675 C120.897229,154.783879 122.444836,161.050378 124.242821,161.737531 C125.517884,160.76927 128.947607,156.306801 132.35466,144.675063 C134.270025,138.134509 135.739043,130.796977 136.550126,124.011083 C141.040302,122.8 146.519899,120.898237 150.210076,119.351637 C149.546096,129.435264 147.332997,141.175315 144.170781,151.064987 C139.0267,167.149118 132.613098,174.967758 124.564736,174.967758 C112.315869,174.967758 109.28262,162.68262 107.067506,153.713854 C105.871033,148.873048 104.233753,142.240302 102.092695,142.240302 C99.9516373,142.240302 98.3148615,148.873048 97.1178841,153.715365 C94.9027708,162.68262 91.8685139,174.967758 79.6216625,174.967758 C64.6851385,174.967758 59.497733,150.372796 54.7002519,120.661461 C54.4171285,118.913854 54.1566751,117.292695 53.9123426,115.84131 L53.9108312,115.84131 C53.6629723,114.477078 53.4100756,113.130982 53.1420655,111.903778 C53.0448363,111.464484 52.938539,111.016121 52.8468514,110.680605 C52.5934509,110.363224 52.1989924,109.906801 51.77733,109.435768 L50.3753149,107.866499 C49.4055416,106.779345 48.4055416,105.634761 47.4307305,104.443325 C43.5062972,99.6926952 39.9989924,94.1707809 37.7188917,88.0695214 C35.3979849,81.9884131 34.2856423,75.4015113 34.3833753,68.9531486 C34.4246851,65.702267 34.7420655,62.5853904 35.3163728,59.3657431 C35.9314861,56.1460957 36.8765743,52.9521411 38.181864,49.8785894 C40.7763224,43.729471 44.902267,38.0690176 50.2287154,33.8151134 C55.5360202,29.5380353 61.9647355,26.7324937 68.5471033,25.5899244 C75.143073,24.4241814 81.8498741,24.9345088 88.0236776,26.6292191 C93.0851385,28.004534 97.786398,30.1929471 102.056927,32.8921914 C106.588413,29.968262 111.661965,27.6982368 117.096725,26.3128463 C123.643829,24.6589421 130.766247,24.4105793 137.642317,26.0020151 Z M105.179345,63.6897229 C100.819647,64.0484131 96.2151134,66.0479093 92.7596977,68.9436272 C89.2765743,71.8615113 87.0846348,75.6065995 86.5445844,79.7179345 C86.261461,81.7778841 86.3838791,83.9446348 86.8549118,86.1708312 C92.6785894,84.0403526 98.4851385,81.8121411 104.271537,79.521461 C108.260453,77.9390932 112.239295,76.3264987 116.208564,74.6867003 C118.422166,73.7688161 120.639798,72.8408564 122.847859,71.9068514 C122.67204,71.5703275 122.492695,71.2353149 122.28262,70.9139043 C121.235768,69.3028212 119.743577,67.8630227 117.948615,66.7063476 C114.360705,64.3733501 109.635264,63.2786398 105.179345,63.6897229 Z" id="Combined-Shape" fill="#FFFFFF"></path>
    </g>
</svg>