<?xml version="1.0" encoding="utf-8"?>
<!-- Generator: Adobe Illustrator 22.1.0, SVG Export Plug-In . SVG Version: 6.00 Build 0)  -->
<svg version="1.1" id="圖層_1" xmlns="http://www.w3.org/2000/svg" xmlns:xlink="http://www.w3.org/1999/xlink" x="0px" y="0px"
	 viewBox="0 0 24 24" enable-background="new 0 0 24 24" xml:space="preserve">
<path d="M15.67,8.91l-4.68,4.68l-2.51-2.53C8.22,10.8,7.85,10.7,7.5,10.8c-0.35,0.09-0.62,0.36-0.72,0.7
	c-0.09,0.36,0.02,0.73,0.27,0.99l3.22,3.21c0.17,0.2,0.43,0.32,0.71,0.33l0.01,0c0.27,0,0.52-0.11,0.71-0.3l5.36-5.36
	c0.29-0.45,0.23-0.98-0.11-1.32C16.61,8.71,16.08,8.65,15.67,8.91z M12,22C6.48,22,2,17.52,2,12S6.48,2,12,2s10,4.48,10,10
	S17.52,22,12,22z" fill="#26bc97"/>
</svg>
