<?xml version="1.0" encoding="utf-8"?>
<!-- Generator: Adobe Illustrator 22.1.0, SVG Export Plug-In . SVG Version: 6.00 Build 0)  -->
<svg version="1.1" id="圖層_1" xmlns="http://www.w3.org/2000/svg" xmlns:xlink="http://www.w3.org/1999/xlink" x="0px" y="0px"
	 viewBox="0 0 24 24" enable-background="new 0 0 24 24" xml:space="preserve">
<path fill-rule="evenodd" clip-rule="evenodd" d="M13.36,12l7.37-7.43c0.36-0.36,0.36-0.95,0-1.31C20.56,3.1,20.33,3,20.08,3
	s-0.48,0.1-0.65,0.27L12,10.75L4.57,3.27C4.39,3.1,4.16,3,3.92,3C3.67,3,3.44,3.1,3.27,3.27C3.1,3.44,3,3.68,3,3.92
	C3,4.17,3.1,4.4,3.27,4.58L10.65,12l-7.37,7.42c-0.36,0.36-0.36,0.95,0,1.3C3.44,20.9,3.68,21,3.92,21s0.48-0.1,0.65-0.27L12,13.25
	l7.43,7.47C19.6,20.9,19.83,21,20.08,21c0.25,0,0.48-0.1,0.65-0.27c0.36-0.36,0.36-0.95,0-1.31L13.36,12z" fill="#828991"/>
</svg>
