<svg xmlns="http://www.w3.org/2000/svg" width="24" height="24" viewBox="0 0 24 24">
    <g fill="none" fill-rule="evenodd">
        <g fill="#EA5455">
            <g>
                <g>
                    <g>
                        <path d="M13 13c0 .552-.448 1-1 1s-1-.448-1-1V8c0-.552.448-1 1-1s1 .448 1 1v5zm-1 4c-.552 0-1-.448-1-1s.448-1 1-1 1 .448 1 1-.448 1-1 1zm0-15C6.477 2 2 6.477 2 12s4.477 10 10 10 10-4.477 10-10S17.523 2 12 2z" transform="translate(-316 -204) translate(40 136) translate(31 64) translate(245 4)"/>
                    </g>
                </g>
            </g>
        </g>
    </g>
</svg>
