<svg xmlns="http://www.w3.org/2000/svg" width="25" height="25" viewBox="0 0 25 25">
    <g fill="none" fill-rule="evenodd">
        <g fill="#00B383">
            <g>
                <g>
                    <g>
                        <g>
                            <path d="M15.213 6.384c.341-.435.97-.513 1.403-.171.436.34.512.969.171 1.403l-7.83 10c-.189.24-.477.382-.78.384-.31 0-.597-.137-.788-.373L3.22 12.449c-.345-.43-.278-1.06.153-1.406.43-.347 1.058-.277 1.406.152l3.38 4.197zm5 0c.341-.435.968-.513 1.403-.171.436.34.512.969.171 1.403l-7.83 10c-.189.24-.477.382-.78.384-.31 0-.597-.137-.788-.373l-1.1-1.367 1.265-1.617.604.749zm-11.84 4.659c.43-.346 1.06-.277 1.406.152l.2.25-1.266 1.615-.492-.61c-.346-.43-.28-1.06.152-1.407z" transform="translate(-55 -277) translate(35.59 175.46) translate(-1.36 18) translate(1 74) translate(20.362 10)"/>
                        </g>
                    </g>
                </g>
            </g>
        </g>
    </g>
</svg>
