<svg xmlns="http://www.w3.org/2000/svg" width="24" height="24" viewBox="0 0 24 24">
    <path fill="#3266FF" fill-rule="evenodd" d="M5.232 5.36c.353-.424.983-.481 1.408-.128.424.354.481.984.128 1.408l-4.476 5.37 4.315 5.363c.346.43.278 1.06-.152 1.406-.185.149-.406.22-.627.22-.292 0-.582-.126-.779-.372l-4.828-6c-.299-.371-.294-.901.011-1.267zm7 0c.354-.425.984-.48 1.409-.128.424.353.48.984.127 1.408l-4.476 5.371 4.316 5.362c.345.43.277 1.06-.152 1.406-.185.15-.407.221-.627.221-.293 0-.583-.128-.78-.373l-4.828-6c-.298-.37-.295-.902.01-1.267z"/>
</svg>
