<svg xmlns="http://www.w3.org/2000/svg" width="24" height="24" viewBox="0 0 24 24">
    <path fill="#3266FF" fill-rule="evenodd" d="M17.545 5.221c.43-.347 1.06-.278 1.406.152l4.828 6c.3.371.294.901-.01 1.267l-5 6c-.199.237-.483.36-.77.36-.225 0-.452-.076-.639-.232-.425-.353-.482-.984-.128-1.408l4.476-5.371-4.316-5.362c-.346-.43-.278-1.06.153-1.406zm-7 0c.43-.346 1.06-.278 1.406.152l4.828 6c.298.371.294.901-.01 1.267l-5 6c-.199.237-.483.36-.77.36-.225 0-.452-.076-.639-.232-.425-.353-.482-.984-.128-1.408l4.475-5.371-4.315-5.362c-.346-.43-.277-1.06.153-1.406z"/>
</svg>
