<svg xmlns="http://www.w3.org/2000/svg" width="28" height="28" viewBox="0 0 28 28">
    <path fill="#0095FF" fill-rule="evenodd" d="M22.167 12.833H5.833V8.167C5.833 7.524 6.357 7 7 7h1.167v1.167c0 .641.525 1.166 1.166 1.166.642 0 1.167-.525 1.167-1.166V7h7v1.167c0 .641.525 1.166 1.167 1.166.641 0 1.166-.525 1.166-1.166V7H21c.643 0 1.167.524 1.167 1.167v4.666zm-3.5 7H14c-.642 0-1.167-.525-1.167-1.166 0-.642.525-1.167 1.167-1.167h4.667c.641 0 1.166.525 1.166 1.167 0 .641-.525 1.166-1.166 1.166zm-9.334 0c-.641 0-1.166-.525-1.166-1.166 0-.642.525-1.167 1.166-1.167.642 0 1.167.525 1.167 1.167 0 .641-.525 1.166-1.167 1.166zM21 4.667h-1.167V3.5c0-.642-.525-1.167-1.166-1.167-.642 0-1.167.525-1.167 1.167v1.167h-7V3.5c0-.642-.525-1.167-1.167-1.167-.641 0-1.166.525-1.166 1.167v1.167H7c-1.93 0-3.5 1.57-3.5 3.5v14c0 1.93 1.57 3.5 3.5 3.5h14c1.93 0 3.5-1.57 3.5-3.5v-14c0-1.93-1.57-3.5-3.5-3.5z"/>
</svg>
