<?xml version="1.0" encoding="UTF-8"?>
<svg width="18px" height="21px" viewBox="0 0 18 21" version="1.1" xmlns="http://www.w3.org/2000/svg" xmlns:xlink="http://www.w3.org/1999/xlink">
    <title>Icon/calendar-plus</title>
    <g id="overview" stroke="none" stroke-width="1" fill="none" fill-rule="evenodd">
        <g id="Group" transform="translate(-3.000000, -1.265289)" fill="#3366ff" fill-rule="nonzero">
            <g id="Combined-Shape">
                <path d="M8.99999996,1.99999996 L8.99999996,3.99999996 L15,3.99999996 L15,1.99999996 L17,1.99999996 L17,3.99999996 L19,3.99999996 C20.103,3.99999996 21,4.89699997 21,5.99999996 L21,5.99999996 L21,20 C21,21.103 20.103,22 19,22 L19,22 L4.99999996,22 C3.89699997,22 2.99999996,21.103 2.99999996,20 L2.99999996,20 L2.99999996,5.99999996 C2.99999996,4.89699997 3.89699997,3.99999996 4.99999996,3.99999996 L4.99999996,3.99999996 L6.99999996,3.99999996 L6.99999996,1.99999996 L8.99999996,1.99999996 Z M19,7.99999998 L4.99999997,7.99999998 L4.99999997,20 L19.002,20 L19,7.99999998 Z M13,9.99999999 L13,13 L16,13 L16,15 L13,15 L13,18 L11,18 L11,15 L7.99999998,15 L7.99999998,13 L11,13 L11,9.99999999 L13,9.99999999 Z"></path>
            </g>
        </g>
    </g>
</svg>