<svg xmlns="http://www.w3.org/2000/svg" width="45" height="45" viewBox="0 0 45 45">
    <g fill="none" fill-rule="evenodd">
        <g fill="#FFF">
            <g>
                <g>
                    <g>
                        <path d="M25.151 22.5l8.05-8.05c.733-.732.733-1.917 0-2.65-.733-.734-1.918-.734-2.651 0l-8.05 8.049-8.05-8.05c-.732-.733-1.917-.733-2.65 0-.734.734-.734 1.918 0 2.652l8.049 8.049-8.05 8.05c-.733.732-.733 1.918 0 2.65.366.366.846.55 1.326.55.48 0 .96-.184 1.326-.55l8.05-8.049 8.049 8.05c.365.365.845.549 1.325.549s.96-.184 1.326-.55c.733-.733.733-1.918 0-2.65l-8.05-8.05z" transform="translate(-1323 -613) translate(1323 612) translate(0 .5) translate(0 .5)"/>
                    </g>
                </g>
            </g>
        </g>
    </g>
</svg>
