<svg xmlns="http://www.w3.org/2000/svg" width="16" height="17" viewBox="0 0 16 17">
    <path fill="#222B45" fill-rule="evenodd" d="M12.46 11.142l-3.793 1.763V8.427l4-1.858v4.29c0 .116-.079.224-.207.283zm-8.924 0c-.126-.058-.204-.166-.202-.287V6.569l4 1.858v4.479l-3.798-1.763zm4.269-7.266c.06-.029.128-.043.195-.043s.134.014.195.043l3.553 1.65L8 7.265l-3.748-1.74 3.553-1.65zm5.966 1.463c-.002-.005-.001-.011-.004-.016-.002-.006-.007-.01-.01-.014-.031-.051-.069-.096-.104-.142-.02-.023-.037-.048-.06-.068-.157-.184-.341-.346-.57-.452L8.755 2.665h-.002c-.48-.222-1.03-.221-1.51 0L2.98 4.647c-.23.106-.415.267-.572.45-.024.022-.042.05-.064.074-.035.045-.07.088-.1.136l-.011.016c-.003.006-.002.012-.005.018-.14.24-.228.512-.228.798v4.71c-.005.634.376 1.224.972 1.502l4.266 1.982c.242.112.5.168.76.168.258 0 .517-.056.758-.168l4.264-1.981c.595-.275.98-.86.98-1.492V6.138c0-.285-.088-.557-.23-.799z"/>
</svg>
