<?xml version="1.0" encoding="UTF-8"?>
<svg width="16px" height="21px" viewBox="0 0 16 21" version="1.1" xmlns="http://www.w3.org/2000/svg" xmlns:xlink="http://www.w3.org/1999/xlink">
    <title>Icon/edit-2-fill</title>
    <defs>
        <path d="M15.2715,4.0347 L17.9655,6.7287 L16.0185,8.6787 L13.3235,5.9837 L15.2715,4.0347 Z M19,20 C19.55,20 20,20.45 20,21 C20,21.55 19.55,22 19,22 L19,22 L5,22 C4.45,22 4,21.55 4,21 C4,20.45 4.45,20 5,20 L5,20 Z M13.9485,2.5297 C14.6505,1.8247 15.9235,1.8597 16.6645,2.5987 L16.6645,2.5987 L19.4035,5.3377 C20.1685,6.1037 20.1995,7.3217 19.4715,8.0517 L19.4715,8.0517 L10.4745,17.0487 C10.1495,17.3737 9.7185,17.5757 9.2605,17.6177 L9.2605,17.6177 L5.0905,17.9957 C5.0605,17.9987 5.0305,17.9997 5.0005,17.9997 C4.7365,17.9997 4.4815,17.8957 4.2925,17.7067 C4.0835,17.4967 3.9775,17.2047 4.0035,16.9097 L4.0035,16.9097 L4.3825,12.7397 C4.4245,12.2827 4.6265,11.8507 4.9525,11.5257 L4.9525,11.5257 Z" id="path-1"></path>
    </defs>
    <g id="overview-V2" stroke="none" stroke-width="1" fill="none" fill-rule="evenodd">
        <g id="Group" transform="translate(-4.000000, -1.540000)">
            <mask id="mask-2" fill="white">
                <use xlink:href="#path-1"></use>
            </mask>
            <use id="🎨-Icon-Сolor" fill="#fff" xlink:href="#path-1"></use>
        </g>
    </g>
</svg>