<svg xmlns="http://www.w3.org/2000/svg" width="268" height="258" viewBox="0 0 268 258">
    <defs>
        <linearGradient id="0e89fke8oa" x1="100%" x2="0%" y1=".332%" y2="99.668%">
            <stop offset="0%" stop-color="#60FFE8"/>
            <stop offset="100%" stop-color="#7E62FF"/>
        </linearGradient>
        <linearGradient id="eghp6sptzb" x1="100%" x2="0%" y1=".332%" y2="99.668%">
            <stop offset="0%" stop-color="#4056FF"/>
            <stop offset="100%" stop-color="#62FFCD"/>
        </linearGradient>
    </defs>
    <g fill="none" fill-rule="evenodd">
        <g>
            <g>
                <path stroke="#D2D8DF" stroke-linecap="round" stroke-width="2.555" d="M8.746 122.042L8.746 124.657" transform="translate(-586 -225) translate(586.5 225)"/>
                <g stroke="#D2D8DF" stroke-linecap="round" stroke-width="2.555">
                    <path d="M2.853.545l2.144 2.2M.345 6.401h3.032m-.769 5.96l2.144-2.2" transform="translate(-586 -225) translate(586.5 225) translate(0 122.914)"/>
                </g>
                <path stroke="#D2D8DF" stroke-linecap="round" stroke-width="2.555" d="M8.746 135.99v-2.615m4.374.871l-1.75-1.743m5.248-2.615h-2.624m.875-6.102l-1.75 1.743M149.564 7.846v1.743m-5.248 3.487h1.75m3.498 5.23v-1.743m4.373-3.487h-1.75M48.106 81.07v2.615m-7.872 5.23h2.624m5.248 6.974v-2.615m6.997-4.359h-2.624m183.896 87.207c1.532 0 2.913.919 3.5 2.33.587 1.41.263 3.034-.82 4.114s-2.713 1.403-4.128.818c-1.415-.584-2.338-1.96-2.338-3.488" transform="translate(-586 -225) translate(586.5 225)"/>
                <path fill="#EBECEE" fill-rule="nonzero" d="M253.699 141.885c2.247-.698 5.693-3.438 6.49-6.386.723 2.607 3.755 5.688 6.49 5.92-3.079 1.088-6.023 4.316-6.49 6.853-.318-2.586-4.39-6.01-6.49-6.387m-230.72 33.076c1.124-.35 2.846-1.72 3.245-3.193.361 1.302 1.877 2.843 3.245 2.96-1.54.543-3.011 2.157-3.245 3.426-.159-1.293-2.195-3.005-3.245-3.193" transform="translate(-586 -225) translate(586.5 225)"/>
                <path fill="#D1D8DF" fill-rule="nonzero" d="M43.841 53.696c0 1.045-.559 2.011-1.467 2.534-.908.523-2.027.523-2.935 0-.908-.521-1.468-1.487-1.468-2.532 0-1.616 1.313-2.926 2.934-2.927 1.621 0 2.936 1.31 2.936 2.925" transform="translate(-586 -225) translate(586.5 225)"/>
                <path fill="#EBECEE" fill-rule="nonzero" d="M239.842 61.553c0 1.747-.935 3.362-2.453 4.235-1.518.874-3.389.874-4.907 0-1.518-.873-2.454-2.487-2.454-4.234 0-2.701 2.197-4.89 4.907-4.89s4.907 2.189 4.907 4.89M211.587 4.716c.03 1.405-.705 2.717-1.921 3.428-1.216.711-2.723.711-3.94 0-1.216-.711-1.95-2.023-1.921-3.428-.03-1.405.705-2.717 1.921-3.428 1.217-.711 2.724-.711 3.94 0 1.216.711 1.951 2.023 1.921 3.428" transform="translate(-586 -225) translate(586.5 225)"/>
                <path stroke="#D2D8DF" stroke-linecap="round" stroke-width="2.555" d="M98.697 229.498c0 .873-.467 1.68-1.226 2.118-.758.437-1.694.437-2.453 0-.76-.436-1.227-1.243-1.227-2.117 0-1.35 1.097-2.445 2.452-2.446 1.355 0 2.454 1.094 2.454 2.445h0zm-1.46-194.6c0 1.044-.559 2.01-1.467 2.533-.908.523-2.027.523-2.935 0-.908-.522-1.468-1.488-1.468-2.533 0-1.616 1.314-2.926 2.935-2.926s2.935 1.31 2.936 2.925h0zM172.11 256.58c-1.216.472-2.592.257-3.606-.562-1.013-.82-1.508-2.117-1.297-3.4.211-1.283 1.096-2.355 2.32-2.808 1.87-.694 3.953.247 4.663 2.107.71 1.86-.22 3.942-2.08 4.663h0z" transform="translate(-586 -225) translate(586.5 225)"/>
                <g fill-rule="nonzero">
                    <path fill="#E0E2EE" d="M93.15 120.299H21.425c-5.047 0-9.18-4.131-9.18-9.18V9.177c0-5.048 4.133-9.177 9.18-9.177H93.15c5.05 0 9.182 4.129 9.182 9.177v101.942c0 5.049-4.132 9.18-9.182 9.18" transform="translate(-586 -225) translate(586.5 225) translate(77.843 67.123)"/>
                    <path fill="#E8EBF2" d="M87.027 124.657H15.303c-5.048 0-9.18-4.13-9.18-9.179V13.535c0-5.047 4.132-9.176 9.18-9.176h71.724c5.05 0 9.183 4.128 9.183 9.176v101.943c0 5.048-4.133 9.18-9.183 9.18" transform="translate(-586 -225) translate(586.5 225) translate(77.843 67.123)"/>
                    <path fill="#D8DBEA" d="M81.072 128.098H9.199c-5.058 0-9.199-4.114-9.199-9.14V17.437c0-5.029 4.14-9.14 9.2-9.14h71.872c5.06 0 9.2 4.111 9.2 9.14v101.518c0 5.028-4.14 9.142-9.2 9.142" transform="translate(-586 -225) translate(586.5 225) translate(77.843 67.123)"/>
                    <path fill="#F1F2F7" d="M81.072 128.098H9.199c-5.058 0-9.199-4.114-9.199-9.14V17.437c0-5.029 4.14-9.14 9.2-9.14h71.872c5.06 0 9.2 4.111 9.2 9.14v101.518c0 5.028-4.14 9.142-9.2 9.142" transform="translate(-586 -225) translate(586.5 225) translate(77.843 67.123)"/>
                    <path fill="#E0E2EE" d="M70.713 39.228H17.626c-1.516 0-2.757-1.177-2.757-2.614 0-1.44 1.24-2.617 2.757-2.617h53.087c1.515 0 2.756 1.177 2.756 2.617 0 1.438-1.24 2.614-2.756 2.614m0 15.691H17.626c-1.516 0-2.757-1.177-2.757-2.614 0-1.44 1.24-2.616 2.757-2.616h53.087c1.515 0 2.756 1.176 2.756 2.616 0 1.438-1.24 2.614-2.756 2.614m0 15.691H17.626c-1.516 0-2.757-1.177-2.757-2.614 0-1.438 1.24-2.616 2.757-2.616h53.087c1.515 0 2.756 1.178 2.756 2.616 0 1.438-1.24 2.614-2.756 2.614m0 15.691H17.626c-1.516 0-2.757-1.177-2.757-2.614 0-1.44 1.24-2.616 2.757-2.616h53.087c1.515 0 2.756 1.177 2.756 2.616 0 1.438-1.24 2.614-2.756 2.614m-25.377 15.691H17.638c-1.523 0-2.77-1.176-2.77-2.614 0-1.44 1.247-2.616 2.77-2.616h27.698c1.523 0 2.769 1.177 2.769 2.616 0 1.438-1.246 2.614-2.77 2.614" transform="translate(-586 -225) translate(586.5 225) translate(77.843 67.123)"/>
                    <g>
                        <path fill="#FFF" fill-opacity=".1" d="M59.26 58.177c-10.615 10.577-27.048 11.77-38.979 3.604-1.546-1.073-2.995-2.279-4.33-3.604-.692-.686-1.35-1.407-1.97-2.159-1.224-1.477-2.3-3.071-3.21-4.758-1.542-2.75-2.626-5.73-3.21-8.825-1.875-9.614.927-19.96 8.391-27.396 7.481-7.458 17.865-10.232 27.512-8.382 3.074.597 6.053 1.656 8.857 3.199 1.682.922 3.275 2 4.756 3.217.752.615 1.47 1.271 2.164 1.966 1.337 1.324 2.548 2.768 3.617 4.314 8.197 11.887 6.997 28.265-3.597 38.824" transform="translate(-586 -225) translate(586.5 225) translate(77.843 67.123) translate(41.983 23.537)"/>
                        <path fill="#E0E2EE" d="M56.29 56.093c-11.043 11.008-28.941 11.007-39.986 0-11.032-10.995-11.032-28.835.014-39.841 11.032-10.995 28.929-10.995 39.96 0 11.044 11.006 11.044 28.846.013 39.841m5.667-45.496c-14.175-14.13-37.145-14.13-51.322 0C-3.537 24.723-3.55 47.63 10.624 61.76c12.901 12.855 33.123 14.014 47.345 3.46 1.416-1.056 2.754-2.212 4.003-3.46 1.252-1.244 2.411-2.578 3.47-3.99 10.59-14.177 9.415-34.317-3.484-47.173" transform="translate(-586 -225) translate(586.5 225) translate(77.843 67.123) translate(41.983 23.537)"/>
                        <path fill="url(#0e89fke8oa)" d="M117.745 115.018l-.595.593c-3.937 3.926-10.384 3.926-14.323 0L66.472 79.377l14.919-14.869 36.354 36.233c3.94 3.927 3.94 10.35 0 14.277" transform="translate(-586 -225) translate(586.5 225) translate(77.843 67.123) translate(41.983 23.537)"/>
                        <path fill="#E0E2EE" d="M66.225 56.662L76.968 67.37l-7.627 7.599-10.74-10.708c1.444-1.078 2.809-2.257 4.084-3.53 1.278-1.268 2.46-2.628 3.54-4.069" transform="translate(-586 -225) translate(586.5 225) translate(77.843 67.123) translate(41.983 23.537)"/>
                        <path fill="#5456EF" d="M117.201 100.296L102.377 115.068 99.708 112.406 114.53 97.634z" transform="translate(-586 -225) translate(586.5 225) translate(77.843 67.123) translate(41.983 23.537)"/>
                        <path fill="url(#eghp6sptzb)" d="M82.216 65.02L66.986 80.199 64.723 77.944 79.953 62.765z" transform="translate(-586 -225) translate(586.5 225) translate(77.843 67.123) translate(41.983 23.537)"/>
                        <path fill="#FFF" fill-opacity=".5" d="M48.98 12.465L11.63 49.689c-1.386-2.472-2.36-5.152-2.884-7.935L41.018 9.59c2.764.539 5.44 1.49 7.962 2.876m12.244 8.847L20.845 59.278c-1.46-.954-2.834-2.033-4.106-3.224-.656-.612-1.28-1.256-1.87-1.93L55.74 15.69c.713.553 1.398 1.14 2.053 1.761 1.261 1.178 2.41 2.47 3.43 3.86" transform="translate(-586 -225) translate(586.5 225) translate(77.843 67.123) translate(41.983 23.537)"/>
                    </g>
                </g>
            </g>
        </g>
    </g>
</svg>
