<svg xmlns="http://www.w3.org/2000/svg" width="16" height="16" viewBox="0 0 16 16">
    <path fill="#8f9bb3" fill-rule="evenodd" d="M2.195 2.195c.261-.26.682-.26.943 0l4.807 4.808L8 7c.512 0 .935.387.993.884L9 8l-.001.055 4.806 4.807c.26.26.26.682 0 .943-.13.13-.301.195-.472.195-.17 0-.341-.065-.471-.195L11.057 12l-.39-.39-.943-.943-1.67-1.67L8 9c-.512 0-.935-.387-.993-.884L7 8l.001-.054-2.146-2.148-1.167-1.167-1.493-1.493c-.26-.26-.26-.682 0-.943zM3.363 5.25L4.384 6.27l1.324 1.323c-.024.133-.041.268-.041.407 0 1.287 1.046 2.333 2.333 2.333.14 0 .274-.017.407-.04l1.925 1.924c-.648.257-1.362.427-2.151.447l-.164.003c-3.909 0-6.176-3.604-6.596-4.336-.117-.205-.117-.458 0-.663.277-.481.928-1.494 1.942-2.42zM7.82 3.335c3.984-.124 6.333 3.592 6.759 4.333.117.205.117.458 0 .663-.277.482-.928 1.495-1.942 2.42l-.556-.556-1.788-1.788c.023-.133.04-.268.04-.407 0-1.287-1.046-2.333-2.333-2.333-.14 0-.274.017-.407.04L5.73 3.843l-.061-.06c.648-.257 1.363-.427 2.152-.448z"/>
</svg>
