<svg xmlns="http://www.w3.org/2000/svg" width="16" height="17" viewBox="0 0 16 17">
    <path fill="#222B45" fill-rule="evenodd" d="M10 11.167c.369 0 .667.298.667.666 0 .368-.298.667-.667.667H6c-.368 0-.667-.299-.667-.667 0-.368.299-.666.667-.666zM8 8.5c.368 0 .667.299.667.667 0 .368-.299.666-.667.666H6c-.368 0-.667-.298-.667-.666 0-.368.299-.667.667-.667zm3.63 5.333H4.37c-.204 0-.37-.149-.37-.333v-10c0-.184.166-.333.37-.333H8v2.1c0 1.048.812 1.9 1.81 1.9H12V13.5c0 .184-.166.333-.37.333zM9.334 3.82l1.828 2.014H9.81c-.263 0-.476-.254-.476-.566V3.819zm3.826 2.233l-3.63-4c-.126-.14-.304-.219-.493-.219H4.37c-.94 0-1.703.748-1.703 1.667v10c0 .919.764 1.667 1.703 1.667h7.26c.939 0 1.704-.748 1.704-1.667v-7c0-.166-.062-.325-.174-.448z"/>
</svg>
