<svg xmlns="http://www.w3.org/2000/svg" width="17" height="17" viewBox="0 0 17 17">
    <g fill="none" fill-rule="evenodd">
        <g fill="#222B45">
            <g>
                <g>
                    <g>
                        <path d="M9.81 5.333c-.263 0-.477-.254-.477-.566V2.652l2.495 2.681H9.809zM10 12H6c-.368 0-.667-.299-.667-.667 0-.368.299-.666.667-.666h4c.369 0 .667.298.667.666 0 .368-.298.667-.667.667zM6 8h2c.368 0 .667.299.667.667 0 .368-.3.666-.667.666H6c-.368 0-.667-.298-.667-.666C5.333 8.299 5.632 8 6 8zm7.16-3.115l-2.963-3.333c-.126-.14-.305-.219-.493-.219H4.37c-.94 0-1.704.748-1.704 1.667v10c0 .919.764 1.667 1.704 1.667h7.258c.94 0 1.704-.748 1.704-1.667V5.333c0-.166-.062-.325-.173-.448z" transform="translate(-704 -201) translate(682.5 76) translate(21.678 71.556) translate(.275 54)"/>
                    </g>
                </g>
            </g>
        </g>
    </g>
</svg>
