<svg xmlns="http://www.w3.org/2000/svg" width="20" height="20" viewBox="0 0 20 20">
    <path fill="#222B45" fill-rule="evenodd" d="M12.5 15.833V12.5h3.333l.001 3.333H12.5zm3.333-5H12.5c-.92 0-1.667.748-1.667 1.667v3.333c0 .92.748 1.667 1.667 1.667h3.333c.92 0 1.667-.747 1.667-1.667V12.5c0-.92-.747-1.667-1.667-1.667zm-11.666 5V12.5H7.5v3.333H4.168zm3.333-5H4.167c-.92 0-1.667.748-1.667 1.667v3.333c0 .92.748 1.667 1.667 1.667H7.5c.92 0 1.667-.747 1.667-1.667V12.5c0-.92-.748-1.667-1.667-1.667zm5-3.333V4.167h3.333l.001 3.333H12.5zm3.333-5H12.5c-.92 0-1.667.748-1.667 1.667V7.5c0 .92.748 1.667 1.667 1.667h3.333c.92 0 1.667-.748 1.667-1.667V4.167c0-.92-.747-1.667-1.667-1.667zm-11.666 5V4.167H7.5V7.5H4.168zm3.333-5H4.167c-.92 0-1.667.748-1.667 1.667V7.5c0 .92.748 1.667 1.667 1.667H7.5c.92 0 1.667-.748 1.667-1.667V4.167c0-.92-.748-1.667-1.667-1.667z"/>
</svg>
