<?xml version="1.0" encoding="UTF-8"?>
<svg width="25px" height="21px" viewBox="0 0 25 21" version="1.1" xmlns="http://www.w3.org/2000/svg" xmlns:xlink="http://www.w3.org/1999/xlink">
    <title>Icon/IC</title>
    <g id="overview" stroke="none" stroke-width="1" fill="none" fill-rule="evenodd">
        <g id="病患管理/overview/new-patient" transform="translate(-581.000000, -520.000000)" fill="#8F9BB3">
            <g id="overview/session/就醫累計資料-copy" transform="translate(415.000000, 500.462196)">
                <g id="Icon/IC" transform="translate(166.000000, 20.500000)">
                    <path d="M19.6705882,0 C22.3865297,0 24.5882353,2.20170558 24.5882353,4.91764706 L24.5882353,13.1137255 C24.5882353,15.829667 22.3865297,18.0313725 19.6705882,18.0313725 L4.91764706,18.0313725 C2.20170558,18.0313725 0,15.829667 0,13.1137255 L0,4.91764706 C0,2.20170558 2.20170558,0 4.91764706,0 L19.6705882,0 Z M14.1596838,4.09803922 C11.1313332,4.09803922 9.85354819,6.39335252 9.85354819,8.98483529 C9.85354819,11.7737644 11.2463339,13.9333333 14.146906,13.9333333 C16.0635836,13.9333333 17.3413686,13.0695057 17.9674833,11.3171698 C18.0185947,11.1937658 18.0313725,11.0703619 18.0313725,10.9839791 C18.0313725,10.6384481 17.6863706,10.3916402 17.2519237,10.3916402 C16.9781126,10.3916402 16.7887918,10.5095036 16.6598212,10.7685439 L16.6002533,10.9099368 L16.5387101,11.0759978 C16.0917793,12.2111344 15.3056247,12.7733363 14.146906,12.7733363 C12.4091183,12.7733363 11.2718896,11.3912121 11.2718896,8.98483529 C11.2718896,6.6525008 12.3707848,5.25803626 14.1596838,5.25803626 C15.4502467,5.25803626 16.1530285,5.91207715 16.4980305,6.81292592 C16.6385868,7.18313775 16.8941438,7.30654169 17.1624787,7.30654169 C17.5969256,7.30654169 17.9163719,7.04739341 17.9163719,6.70186238 C17.9163719,6.60313922 17.8908162,6.49207568 17.8397048,6.35633134 C17.4180357,5.25803626 16.2552513,4.09803922 14.1596838,4.09803922 Z M7.27242238,4.17208158 C6.79964191,4.17208158 6.55686275,4.39420867 6.55686275,4.81378207 L6.55686275,13.2299309 C6.55686275,13.6495043 6.79964191,13.859291 7.27242238,13.859291 C7.7579807,13.859291 8.00075986,13.6495043 8.00075986,13.2299309 L8.00075986,4.81378207 C8.00075986,4.39420867 7.7579807,4.17208158 7.27242238,4.17208158 Z" id="Shape"></path>
                </g>
            </g>
        </g>
    </g>
</svg>