<svg xmlns="http://www.w3.org/2000/svg" xmlns:xlink="http://www.w3.org/1999/xlink" width="24" height="24" viewBox="0 0 24 24">
    <defs>
        <path id="prefix__a" d="M15.271 4.035l2.694 2.694-1.947 1.95-2.695-2.695 1.948-1.95zM19 20c.55 0 1 .45 1 1s-.45 1-1 1H5c-.55 0-1-.45-1-1s.45-1 1-1zM13.948 2.53c.702-.705 1.976-.67 2.716.069l2.74 2.739c.765.766.796 1.984.067 2.714l-8.996 8.997c-.325.325-.756.527-1.214.569l-4.17.378c-.03.003-.06.004-.09.004-.264 0-.52-.104-.708-.293-.21-.21-.316-.502-.29-.797l.38-4.17c.042-.457.244-.89.57-1.214z"/>
    </defs>
    <g fill="none" fill-rule="evenodd">
        <use fill="#fff" xlink:href="#prefix__a"/>
    </g>
</svg>
