<svg xmlns="http://www.w3.org/2000/svg" xmlns:xlink="http://www.w3.org/1999/xlink" width="24" height="24" viewBox="0 0 24 24">
    <defs>
        <path id="jeqrj1vcta" d="M12 2C6.486 2 2 6.486 2 12s4.486 10 10 10 10-4.486 10-10S17.514 2 12 2zM9.944 15.024V9.72h-.4v3.68l-2.752-3.2c-.123-.16-.279-.28-.468-.36-.19-.08-.436-.12-.74-.12h-.56v.24h.04c.139 0 .255.019.348.056.093.037.168.088.224.152.056.064.095.14.116.228.021.088.032.183.032.284V15h.4v-3.96l3.392 3.984h.368zM12.336 15v-2.56h2.16v1.52c0 .203.01.37.032.504.021.133.06.24.116.32.056.08.13.136.224.168.093.032.21.048.348.048h.96v-.24h-.08c-.24 0-.393-.073-.46-.22-.067-.147-.1-.34-.1-.58V9.72h-1.04v2.36h-2.16v-1.32c0-.197-.01-.363-.032-.496-.021-.133-.06-.24-.116-.32-.056-.08-.13-.137-.224-.172-.093-.035-.21-.052-.348-.052h-.96v.24h.08c.24 0 .393.073.46.22.067.147.1.34.1.58V15h1.04zm6.272 0v-.24h-.08c-.24 0-.393-.073-.46-.22-.067-.147-.1-.34-.1-.58V9.72h-1.04v4.24c0 .203.01.37.032.504.021.133.06.24.116.32.056.08.13.136.224.168.093.032.21.048.348.048h.96z"/>
    </defs>
    <g fill="none" fill-rule="evenodd">
        <g>
            <use fill="#222B45" xlink:href="#jeqrj1vcta"/>
        </g>
    </g>
</svg>
