<svg xmlns="http://www.w3.org/2000/svg" xmlns:xlink="http://www.w3.org/1999/xlink" width="24" height="24" viewBox="0 0 24 24">
    <defs>
        <path id="prefix__a" d="M16 17c0 .552-.449 1-1 1H3c-.551 0-1-.448-1-1V6c0-.552.449-1 1-1v1c0 1.103.897 2 2 2h8c1.103 0 2-.897 2-2V5c.551 0 1 .448 1 1v11zM5 2l8 .003V6H5V2zm10 1V2c0-1.103-.897-2-2-2H5C3.897 0 3 .897 3 2v1C1.346 3 0 4.346 0 6v11c0 1.654 1.346 3 3 3h12c1.654 0 3-1.346 3-3V6c0-1.654-1.346-3-3-3z"/>
    </defs>
    <g fill="none" fill-rule="evenodd" transform="translate(3 2)">
        <use fill="#222B45" xlink:href="#prefix__a"/>
    </g>
</svg>
