<svg id="Icon_clock" data-name="Icon/clock" xmlns="http://www.w3.org/2000/svg" xmlns:xlink="http://www.w3.org/1999/xlink" width="24" height="24" viewBox="0 0 24 24">
  <defs>
    <style>
      .cls-1 {
        fill: #222b45;
      }

      .cls-2 {
        clip-path: url(#clip-path);
      }
    </style>
    <clipPath id="clip-path">
      <path id="_Icon_小olor" data-name=" Icon 小olor" class="cls-1" d="M10,20A10,10,0,1,1,20,10,10.011,10.011,0,0,1,10,20ZM10,2a8,8,0,1,0,8,8A8.009,8.009,0,0,0,10,2Zm4,9H10a1,1,0,0,1-1-1V6a1,1,0,1,1,2,0V9h3a1,1,0,1,1,0,2Z" transform="translate(2 2)"/>
    </clipPath>
  </defs>
  <g id="Group_334" data-name="Group 334">
    <path id="_Icon_小olor-2" data-name=" Icon 小olor" class="cls-1" d="M10,20A10,10,0,1,1,20,10,10.011,10.011,0,0,1,10,20ZM10,2a8,8,0,1,0,8,8A8.009,8.009,0,0,0,10,2Zm4,9H10a1,1,0,0,1-1-1V6a1,1,0,1,1,2,0V9h3a1,1,0,1,1,0,2Z" transform="translate(2 2)"/>
  </g>
</svg>
