<svg xmlns="http://www.w3.org/2000/svg" width="16" height="17" viewBox="0 0 16 17">
    <g fill="none" fill-rule="evenodd">
        <g fill="#222B45">
            <g>
                <g>
                    <g>
                        <g>
                            <path d="M8 13.333c-2.94 0-5.333-2.392-5.333-5.333 0-2.94 2.392-5.333 5.333-5.333 2.94 0 5.333 2.392 5.333 5.333 0 2.94-2.392 5.333-5.333 5.333zm0-12C4.324 1.333 1.333 4.324 1.333 8c0 3.676 2.991 6.667 6.667 6.667 3.676 0 6.667-2.991 6.667-6.667 0-3.676-2.991-6.667-6.667-6.667zm-1.37 8.683V6.48h-.267v2.453L4.528 6.8c-.082-.107-.186-.187-.312-.24-.126-.053-.29-.08-.493-.08h-.374v.16h.027c.092 0 .17.012.232.037.062.025.112.059.15.102.037.042.062.093.077.152.014.058.021.121.021.189V10h.267V7.36l2.261 2.656h.245zM8.223 10V8.293h1.44v1.014c0 .135.007.247.021.336.015.089.04.16.078.213.037.053.087.09.149.112.062.021.14.032.232.032h.64v-.16h-.053c-.16 0-.263-.049-.307-.147-.044-.097-.067-.226-.067-.386V6.48h-.693v1.573h-1.44v-.88c0-.131-.007-.241-.021-.33-.015-.09-.04-.16-.078-.214-.037-.053-.087-.091-.149-.114-.062-.023-.14-.035-.232-.035h-.64v.16h.053c.16 0 .263.049.307.147.044.097.067.226.067.386V10h.693zm4.181 0v-.16h-.053c-.16 0-.262-.049-.307-.147-.044-.097-.066-.226-.066-.386V6.48h-.694v2.827c0 .135.007.247.022.336.014.089.04.16.077.213.037.053.087.09.15.112.062.021.139.032.231.032h.64z" transform="translate(-769 -41) translate(29 18) translate(352 16) translate(378) translate(10 7.5)"/>
                        </g>
                    </g>
                </g>
            </g>
        </g>
    </g>
</svg>
