<svg xmlns="http://www.w3.org/2000/svg" xmlns:xlink="http://www.w3.org/1999/xlink" width="24" height="24" viewBox="0 0 24 24">
    <defs>
        <path id="prefix__a" d="M19 16.402l-6 1.348V7.597l6-1.347v10.152zM5 6.25l6 1.347V17.75l-6-1.348V6.25zm15.625-2.032c-.238-.189-.548-.26-.845-.194L12 5.772 4.22 4.024c-.298-.068-.607.005-.845.194C3.138 4.41 3 4.696 3 5v12.202c0 .468.324.873.78.975l8 1.798c.074.017.147.025.22.025.073 0 .146-.008.22-.025l8-1.798c.456-.102.78-.507.78-.975V5c0-.304-.138-.59-.375-.782z"/>
    </defs>
    <g fill="none" fill-rule="evenodd">
        <use fill="#222B45" xlink:href="#prefix__a"/>
    </g>
</svg>
