<svg xmlns="http://www.w3.org/2000/svg" width="20" height="20" viewBox="0 0 20 20">
    <g fill="none" fill-rule="evenodd">
        <g fill="#8F9BB3">
            <g>
                <g>
                    <g>
                        <path d="M10 9.166c.46 0 .834.373.834.834v4.703l1.087-1.05c.332-.319.86-.31 1.178.021.32.332.311.86-.02 1.178l-2.5 2.415c-.162.155-.37.233-.579.233-.213 0-.427-.081-.589-.244l-2.5-2.5c-.326-.325-.326-.853 0-1.179.325-.325.853-.325 1.178 0l1.078 1.078V10c0-.461.373-.834.833-.834zM10 2.5c2.15 0 4.046 1.384 4.729 3.37 2.033.277 3.604 2.023 3.604 4.13 0 1.017-.37 1.997-1.041 2.757-.166.186-.395.282-.626.282-.195 0-.392-.068-.551-.208-.344-.306-.378-.832-.073-1.178.403-.455.624-1.043.624-1.653 0-1.378-1.121-2.5-2.5-2.5h-.083c-.396 0-.738-.28-.816-.67-.312-1.543-1.685-2.663-3.267-2.663-1.581 0-2.955 1.12-3.266 2.664-.078.389-.42.669-.817.669h-.084c-1.378 0-2.5 1.122-2.5 2.5 0 .61.222 1.198.625 1.653.304.346.272.872-.073 1.178-.346.305-.872.27-1.176-.074-.672-.76-1.042-1.74-1.042-2.757 0-2.107 1.571-3.853 3.604-4.13C5.955 3.885 7.85 2.5 10 2.5z" transform="translate(-1110 -131) translate(33 121) translate(1065) translate(12 10)"/>
                    </g>
                </g>
            </g>
        </g>
    </g>
</svg>
