<svg xmlns="http://www.w3.org/2000/svg" width="20" height="20" viewBox="0 0 20 20">
    <g fill="none" fill-rule="evenodd">
        <g fill="#FFF">
            <g>
                <g>
                    <g>
                        <path d="M10 3.333c.458 0 .833.375.833.834v12.5c0 .458-.375.833-.833.833-.458 0-.833-.375-.833-.833v-12.5c0-.459.375-.834.833-.834zM15.833 10c.459 0 .834.375.834.833v5.834c0 .458-.375.833-.834.833-.458 0-.833-.375-.833-.833v-5.834c0-.458.375-.833.833-.833zM4.167 6.667c.458 0 .833.375.833.833v9.167c0 .458-.375.833-.833.833-.459 0-.834-.375-.834-.833V7.5c0-.458.375-.833.834-.833z" transform="translate(-1282 -131) translate(33 121) translate(1234) translate(15 10)"/>
                    </g>
                </g>
            </g>
        </g>
    </g>
</svg>
