<svg xmlns="http://www.w3.org/2000/svg" width="24" height="24" viewBox="0 0 16 17">
    <path fill="#222B45" fill-rule="evenodd" d="M8 7.166c.368 0 .667.299.667.667 0 .368-.299.667-.667.667-.368 0-.667-.3-.667-.667 0-.368.3-.667.667-.667zm2.667 0c.368 0 .666.299.666.667 0 .368-.298.667-.666.667-.368 0-.667-.3-.667-.667 0-.368.299-.667.667-.667zm-5.334 0c.368 0 .667.299.667.667 0 .368-.299.667-.667.667-.368 0-.666-.3-.666-.667 0-.368.298-.667.666-.667zm7.933 1.53c-.338 2.17-2.087 3.969-4.253 4.375-1.046.197-2.111.084-3.078-.325-.274-.116-.557-.175-.835-.175-.127 0-.252.012-.376.037l-1.874.375.375-1.878c.079-.39.03-.808-.138-1.207-.41-.967-.521-2.031-.325-3.078.406-2.166 2.205-3.915 4.375-4.253 1.727-.268 3.415.276 4.634 1.494 1.22 1.22 1.764 2.91 1.495 4.635m-.552-5.577c-1.523-1.523-3.63-2.202-5.782-1.87-2.718.424-4.972 2.614-5.48 5.325-.246 1.305-.104 2.635.407 3.843.065.154.085.298.06.426l-.573 2.86c-.044.218.025.444.183.601.126.127.296.195.471.195.044 0 .087-.004.131-.012l2.855-.572c.164-.03.323.015.43.06 1.21.51 2.538.651 3.842.406 2.712-.508 4.902-2.762 5.326-5.48.334-2.15-.346-4.259-1.87-5.782"/>
</svg>
