<svg xmlns="http://www.w3.org/2000/svg" width="24" height="24" viewBox="0 0 16 16">
    <path fill="#FFF" fill-rule="evenodd" d="M10.666 8.666C10.298 8.666 10 8.367 10 8c0-.368.298-.666.666-.666.368 0 .667.298.667.666 0 .368-.299.667-.667.667M8 8.666c-.368 0-.667-.299-.667-.667 0-.368.299-.666.667-.666.368 0 .666.298.666.666 0 .368-.298.667-.666.667m-2.667 0c-.368 0-.667-.299-.667-.667 0-.368.3-.666.667-.666.368 0 .667.298.667.666 0 .368-.299.667-.667.667m7.38-5.38c-1.522-1.523-3.63-2.203-5.782-1.87-2.718.424-4.971 2.613-5.48 5.325-.245 1.305-.104 2.634.407 3.843.066.153.086.297.06.426l-.572 2.859c-.044.218.025.444.182.602.126.126.296.195.472.195.043 0 .087-.004.13-.013l2.856-.57c.164-.032.323.014.43.058 1.208.511 2.538.651 3.842.407 2.712-.509 4.901-2.762 5.325-5.48.335-2.152-.346-4.26-1.87-5.783"/>
</svg>
