<svg xmlns="http://www.w3.org/2000/svg" width="24" height="24" viewBox="0 0 24 24">
    <path fill="#0095FF" fill-rule="evenodd" d="M12.296 22l-.096-.001c-2.794-.024-5.402-1.145-7.344-3.153-3.677-3.805-3.792-10.102-.257-14.037 1.1-1.227 2.445-2.15 3.993-2.743.365-.142.78-.054 1.059.222.28.275.373.688.238 1.056-1.118 3.055-.357 6.511 1.94 8.804 2.298 2.293 5.764 3.054 8.829 1.938.368-.136.78-.04 1.055.238.275.28.36.695.22 1.06-.523 1.363-1.31 2.573-2.335 3.596-1.953 1.95-4.544 3.02-7.302 3.02"/>
</svg>
