<?xml version="1.0" encoding="UTF-8"?>
<svg width="18px" height="20px" viewBox="0 0 18 20" version="1.1" xmlns="http://www.w3.org/2000/svg" xmlns:xlink="http://www.w3.org/1999/xlink">
    <title>Shape</title>
    <g id="(Current)-月申報-v0.3" stroke="none" stroke-width="1" fill="none" fill-rule="evenodd">
        <g id="monthly-v0.3" transform="translate(-566.000000, -96.000000)" fill="#26BC97">
            <g id="Group-41" transform="translate(544.000000, 84.000000)">
                <g id="Group" transform="translate(20.000000, 12.000000)">
                    <g id="ÂúñÂ±§_1" transform="translate(-0.000000, 0.833333)">
                        <path d="M3.61666668,8.2666667 C3.74166668,6.82500003 4.45000002,6.13333336 5.64166669,6.13333336 C5.70418817,6.13333337 5.76196041,6.09997856 5.79322115,6.04583337 C5.82448189,5.99168818 5.82448189,5.92497855 5.79322115,5.87083336 C5.76196041,5.81668817 5.70418817,5.78333336 5.64166669,5.78333336 C4.22500002,5.78333336 3.41666668,6.6166667 3.27500001,8.23333337 C3.25944088,8.30335468 3.28818678,8.37578098 3.34752947,8.41607386 C3.40687216,8.45636673 3.48479453,8.45636673 3.54413722,8.41607386 C3.60347991,8.37578098 3.63222582,8.30335468 3.61666668,8.23333337 L3.61666668,8.2666667 Z M18.3333334,2.50000001 C18.3241437,3.78076615 17.2808606,4.8128886 16.0000697,4.80831853 C14.7192788,4.80371802 13.6833932,3.76415212 13.6833932,2.48335301 C13.6833932,1.2025539 14.7192093,0.162956983 16.0000001,0.158318165 C16.6209701,0.156091639 17.2170329,0.402351086 17.6553444,0.842228054 C18.093656,1.28210502 18.3377889,1.87904194 18.3333334,2.50000001 L18.3333334,2.50000001 Z M3.59166668,4.68333336 C3.48333335,4.68333336 3.36666668,4.68333336 3.36666668,4.50833336 C3.36666668,3.67500002 3.30833335,2.79166668 3.42500001,1.94166668 C3.62139594,0.792847529 4.64068548,-0.0312106546 5.80515707,0.0173970525 C6.96962867,0.0660047596 7.91669584,0.972143169 8.0166667,2.13333335 C8.0166667,2.91666668 8.0166667,3.70833335 8.0166667,4.50000002 C8.0166667,4.69166669 7.92500003,4.68333336 7.7916667,4.68333336 L3.59166668,4.68333336 Z M19.2916667,18.0166667 C19.2916667,18.2500001 19.2916667,18.3416667 18.9916667,18.3416667 C16.9916667,18.3416667 14.9916667,18.3416667 12.9833334,18.3416667 C12.7583334,18.3416667 12.7083334,18.2750001 12.7083334,18.0583334 C12.7083334,16.0500001 12.7083334,14.0416667 12.7083334,12.0333334 C12.7083334,11.7833334 12.6500001,11.7083334 12.4000001,11.7083334 C11.3583334,11.7083334 10.325,11.7083334 9.29166671,11.7083334 C9.0416667,11.7083334 8.97500004,11.7750001 8.97500004,12.0250001 C8.97500004,13.9500001 8.97500004,16.1000001 8.97500004,18.0250001 C8.97500004,18.2750001 8.90833337,18.3333334 8.65833337,18.3333334 L2.70833334,18.3333334 C2.46666668,18.3333334 2.40833334,18.2583334 2.40833334,18.0333334 C2.40833334,15.0750001 2.40833334,11.9000001 2.40833334,8.95000004 C2.36801765,8.39045391 2.41582219,7.82804755 2.55000001,7.28333337 C3.07768038,5.8337852 4.53103202,4.93566785 6.063515,5.11211155 C7.59599797,5.28855526 8.8072164,6.49346011 8.9916667,8.02500004 C8.9916667,8.44166671 8.9916667,8.44166671 9.44166671,8.44166671 L12.4250001,8.44166671 C12.6166667,8.44166671 12.6916667,8.44166671 12.7083334,8.20000004 C13.0685892,6.59236314 14.5492784,5.48905946 16.1927975,5.6036267 C17.8363166,5.71819394 19.1496099,7.01626192 19.2833334,8.65833337 L19.2916667,18.0166667 Z" id="Shape"></path>
                    </g>
                </g>
            </g>
        </g>
    </g>
</svg>