<svg xmlns="http://www.w3.org/2000/svg" width="16" height="17" viewBox="0 0 16 17">
    <path fill="#222B45" fill-rule="evenodd" d="M12.667 13.167H7.009l2.373-2.546h3.285v2.546zm-9.334-1.273V10.5H5.88v1.394c0 .702-.571 1.273-1.273 1.273s-1.273-.571-1.273-1.273zM5.88 7.167v2H3.333v-2H5.88zm0-3.334v2H3.333v-2H5.88zM8.948 5.56L10.73 7.22l-3.518 3.772V7.421l1.736-1.862zm4.385 3.729h-2.708l1.534-1.646c.252-.269.237-.69-.033-.942L9.369 4.129c-.13-.12-.295-.19-.478-.178-.176.006-.344.082-.464.211L7.212 5.465V3.167c0-.369-.298-.667-.667-.667H2.667c-.369 0-.667.298-.667.667v8.727C2 13.331 3.17 14.5 4.606 14.5h8.727c.369 0 .667-.298.667-.667V9.955c0-.369-.298-.667-.667-.667z"/>
</svg>
