<svg xmlns="http://www.w3.org/2000/svg" width="16" height="17" viewBox="0 0 16 17">
    <g fill="none" fill-rule="evenodd">
        <g fill="#FFF">
            <g>
                <g>
                    <g>
                        <g>
                            <path d="M6 8.667c1.285 0 2.449.522 3.293 1.364.58-.448 1.293-.698 2.04-.698 1.838 0 3.334 1.496 3.334 3.334 0 .368-.298.666-.667.666h-3.333c0 .368-.298.667-.667.667H2c-.369 0-.667-.299-.667-.667 0-2.573 2.094-4.666 4.667-4.666zm5.333-4c1.103 0 2 .897 2 2 0 1.102-.897 2-2 2-1.102 0-2-.898-2-2 0-1.103.898-2 2-2zM6 2c1.47 0 2.667 1.196 2.667 2.667 0 1.47-1.196 2.666-2.667 2.666-1.47 0-2.667-1.196-2.667-2.666C3.333 3.196 4.53 2 6 2z" transform="translate(-807 -40) translate(440 34) translate(355) translate(12 6) translate(0 .53)"/>
                        </g>
                    </g>
                </g>
            </g>
        </g>
    </g>
</svg>
