<svg xmlns="http://www.w3.org/2000/svg" width="17" height="17" viewBox="0 0 17 17">
    <g fill="none" fill-rule="evenodd">
        <g fill="#222B45">
            <g>
                <g>
                    <g>
                        <path d="M8 8.667c2.573 0 4.667 2.093 4.667 4.666 0 .368-.298.667-.667.667H4c-.369 0-.667-.299-.667-.667 0-2.573 2.094-4.666 4.667-4.666zM8 2c1.47 0 2.667 1.196 2.667 2.667 0 1.47-1.196 2.666-2.667 2.666-1.47 0-2.667-1.196-2.667-2.666C5.333 3.196 6.53 2 8 2z" transform="translate(-704 -173) translate(682.5 76) translate(21.678 71.556) translate(.275 26)"/>
                    </g>
                </g>
            </g>
        </g>
    </g>
</svg>
