<svg xmlns="http://www.w3.org/2000/svg" width="14" height="14" viewBox="0 0 14 14">
    <g fill="none" fill-rule="evenodd">
        <g fill="#FFF">
            <g>
                <g>
                    <g>
                        <path d="M7 7.583c2.251 0 4.083 1.832 4.083 4.084 0 .322-.26.583-.583.583h-7c-.323 0-.583-.261-.583-.583 0-2.252 1.832-4.084 4.083-4.084zM7 1.75c1.287 0 2.333 1.046 2.333 2.333C9.333 5.37 8.287 6.417 7 6.417c-1.287 0-2.333-1.047-2.333-2.334C4.667 2.796 5.713 1.75 7 1.75z" transform="translate(-1130 -142) translate(1094) translate(24 133) translate(12 9)"/>
                    </g>
                </g>
            </g>
        </g>
    </g>
</svg>
