<svg xmlns="http://www.w3.org/2000/svg" width="15" height="15" viewBox="0 0 15 15">
    <g fill="none" fill-rule="evenodd">
        <g fill="#222B45">
            <g>
                <g>
                    <g>
                        <path d="M10.15 12.833c-4.954 0-8.983-4.03-8.983-8.983 0-1.48 1.204-2.683 2.683-2.683.152 0 .302.012.447.038.142.022.284.058.423.106.19.066.332.226.377.421l.8 3.48c.043.19-.012.392-.148.534-.08.083-.082.084-.805.463.585 1.268 1.603 2.283 2.846 2.848.379-.723.381-.726.464-.805.143-.137.344-.19.535-.148l3.479.799c.195.045.355.187.42.377.048.137.084.28.108.426.024.144.037.293.037.444 0 1.48-1.203 2.683-2.683 2.683" transform="translate(-705 -150) translate(682.5 76) translate(21.678 71.556) translate(1.275 3.29)"/>
                    </g>
                </g>
            </g>
        </g>
    </g>
</svg>
