<svg xmlns="http://www.w3.org/2000/svg" width="20" height="20" viewBox="0 0 20 20">
    <path fill="#222B45" fill-rule="evenodd" d="M16.667 13.61c0 .308-.238.557-.531.557h-.72V12.5c0-.92-.747-1.667-1.666-1.667h-7.5c-.92 0-1.667.748-1.667 1.667v1.667h-.719c-.293 0-.53-.25-.53-.556V8.056c0-.307.237-.556.53-.556h12.272c.293 0 .53.25.53.556v5.555zM6.25 15.834V12.5h7.5l.002 3.333H6.25zm.428-11.666h6.655v1.666h-6.66l.005-1.666zm9.458 1.666H15V4.167c0-.92-.685-1.667-1.527-1.667H6.527C5.686 2.5 5 3.248 5 4.167v1.666H3.864c-1.212 0-2.197.997-2.197 2.223v5.555c0 1.226.985 2.222 2.197 2.222h.72c0 .92.747 1.667 1.666 1.667h7.5c.92 0 1.667-.747 1.667-1.667h.719c1.212 0 2.197-.996 2.197-2.222V8.056c0-1.226-.985-2.223-2.197-2.223z"/>
</svg>
