<?xml version="1.0" encoding="UTF-8"?>
<svg width="1024px" height="270px" viewBox="0 0 1024 270" version="1.1" xmlns="http://www.w3.org/2000/svg" xmlns:xlink="http://www.w3.org/1999/xlink">
    <!-- Generator: sketchtool 61.2 (101010) - https://sketch.com -->
    <title>76478AC0-2FE8-4155-8F43-14DA8BCE9AE3@2.00x</title>
    <desc>Created with sketchtool.</desc>
    <g id="v0.2-NP-forms" stroke="none" stroke-width="1" fill="none" fill-rule="evenodd">
        <g id="Multiple-choice_pass" transform="translate(0.000000, -498.000000)">
            <g id="Group-2" transform="translate(-502.000000, 451.000000)">
                <path d="M395,108.818966 C658.628339,190.545696 911.352549,200.87903 1153.17263,139.818966 C1515.90275,48.2288697 1570.10837,25.5221648 1622.50853,52.8189656 C1657.44198,71.0168328 1673.45919,211.946318 1670.56017,475.607422 C893.627494,447.071494 492.498313,432.569361 467.172629,432.101021 C441.846944,431.632682 417.789401,323.871997 395,108.818966 Z" id="Path-2" fill-opacity="0.0444984703" fill="#4DA1FF"></path>
                <path d="M0,66.8189656 C325.223886,148.545696 636.995943,158.87903 935.316171,97.8189656 C1382.79651,6.22886972 1449.66702,-16.4778352 1514.31025,10.8189656 C1557.40573,29.0168328 1577.16529,169.946318 1573.58893,433.607422 C615.12951,405.071494 120.278345,390.569361 89.0354311,390.101021 C57.7925171,389.632682 28.11404,281.871997 0,66.8189656 Z" id="Path-2" fill-opacity="0.0444984703" fill="#4DA1FF" transform="translate(787.000000, 216.803711) scale(-1, 1) translate(-787.000000, -216.803711) "></path>
                <path d="M492,143.382567 C631.604227,185.291925 757.343248,203.848705 869.217062,199.052908 C1037.02778,191.859213 1533.06257,43.5094236 1588.98231,52.3825673" id="Path-3" stroke="#4DA1FF" opacity="0.123628162"></path>
            </g>
        </g>
    </g>
</svg>